<svg xmlns="http://www.w3.org/2000/svg" version="1.1" xmlns:xlink="http://www.w3.org/1999/xlink" width="20" height="29"><svg width="20" height="29" viewBox="0 0 20 29" fill="none" xmlns="http://www.w3.org/2000/svg">
<path d="M10.5928 0.578125C12.9752 0.578125 15.383 1.15789 17.8125 2.30566L18.1631 2.47168L18.0283 2.83398L16.7344 6.32129L16.5742 6.75195L16.1592 6.55664C14.4417 5.75161 12.8465 5.35938 11.3691 5.35938C9.90141 5.35939 8.87392 5.60445 8.22461 6.03418C7.60584 6.4438 7.28809 7.04936 7.28809 7.91895C7.28816 8.60321 7.68266 9.3441 8.63672 10.1396C9.46981 10.8342 10.6881 11.5349 12.3086 12.2344L13.0283 12.5332V12.5342C14.5707 13.1578 15.9803 14.1293 17.2578 15.4395L17.5039 15.6963C18.6961 16.9995 19.2968 18.5569 19.2969 20.3496C19.2969 23.0241 18.4907 25.0926 16.8135 26.4697L16.8086 26.4736C15.1566 27.7901 12.8947 28.4219 10.0752 28.4219C7.22551 28.4219 4.4569 27.5688 1.77539 25.8818L1.48535 25.6992L1.60449 25.3779L2.89844 21.8906L3.07812 21.4072L3.5166 21.6787C5.61859 22.9839 8.00777 23.6406 10.6963 23.6406C11.8038 23.6406 12.6556 23.3937 13.2881 22.9385C13.9046 22.4584 14.2079 21.8341 14.208 21.0254C14.208 20.2334 13.8665 19.5411 13.1211 18.9336C12.3268 18.2863 11.3598 17.7042 10.2139 17.1914C9.03372 16.6633 7.85349 16.0974 6.67383 15.4941L6.66406 15.4893C5.43403 14.8209 4.38653 13.8979 3.52344 12.7256C2.63651 11.5208 2.19925 10.0993 2.19922 8.48145C2.19922 5.98885 2.97428 4.02147 4.57227 2.64844C6.17863 1.26044 8.1963 0.578128 10.5928 0.578125Z" fill="#4EA396" stroke="#4EA396" stroke-width="0.84375"></path>
</svg><style>@media (prefers-color-scheme: light) { :root { filter: none; } }
@media (prefers-color-scheme: dark) { :root { filter: none; } }
</style></svg>