<svg width="17" height="19" viewBox="0 0 17 19" fill="none" xmlns="http://www.w3.org/2000/svg">
<path d="M15.9742 14.2156C15.6983 14.8529 15.3718 15.4395 14.9935 15.9788C14.4778 16.7141 14.0555 17.223 13.7301 17.5057C13.2257 17.9696 12.6852 18.2071 12.1065 18.2207C11.691 18.2207 11.1899 18.1024 10.6067 17.8626C10.0215 17.6239 9.48373 17.5057 8.99202 17.5057C8.47632 17.5057 7.92324 17.6239 7.33166 17.8626C6.73917 18.1024 6.26186 18.2274 5.89693 18.2398C5.34194 18.2634 4.78875 18.0191 4.23657 17.5057C3.88414 17.1983 3.44332 16.6713 2.91524 15.9248C2.34864 15.1276 1.88283 14.2032 1.5179 13.1493C1.12707 12.0109 0.931152 10.9086 0.931152 9.84137C0.931152 8.6189 1.19531 7.56454 1.7244 6.68098C2.14023 5.97128 2.69342 5.41144 3.38578 5.00046C4.07814 4.58948 4.82624 4.38005 5.63188 4.36665C6.0727 4.36665 6.65078 4.50301 7.36915 4.77099C8.0855 5.03987 8.54546 5.17623 8.74712 5.17623C8.89789 5.17623 9.40886 5.01679 10.2751 4.69893C11.0942 4.40415 11.7856 4.28209 12.3519 4.33017C13.8866 4.45403 15.0396 5.05901 15.8064 6.14896C14.4339 6.9806 13.7549 8.14542 13.7684 9.63971C13.7808 10.8036 14.203 11.7722 15.0329 12.5412C15.409 12.8982 15.829 13.174 16.2962 13.37C16.1949 13.6638 16.0879 13.9453 15.9742 14.2156ZM12.4544 0.364931C12.4544 1.27721 12.1211 2.129 11.4568 2.91741C10.6551 3.85467 9.6854 4.39626 8.63385 4.3108C8.62045 4.20136 8.61268 4.08617 8.61268 3.96513C8.61268 3.08934 8.99393 2.15208 9.67098 1.38574C10.009 0.99773 10.4389 0.675104 10.9602 0.417739C11.4804 0.164214 11.9725 0.0240094 12.4353 0C12.4488 0.121957 12.4544 0.243922 12.4544 0.364919V0.364931Z" fill="black"/>
</svg>
