<svg width="24" height="12" viewBox="0 0 24 12" fill="none" xmlns="http://www.w3.org/2000/svg">
<path d="M9.84575 1.07373L6.42395 1.07373C5.14601 1.07373 3.90914 1.5757 3.00212 2.49615C2.0951 3.4166 1.57979 4.65073 1.60046 5.96865C1.57973 7.28655 2.09525 8.52085 3.00212 9.44115C3.92968 10.3824 5.12526 10.8845 6.40327 10.8846H9.82506M14.154 10.9264H17.5758C18.8537 10.9264 20.0906 10.4244 20.9976 9.50394C21.9046 8.58349 22.4199 7.34936 22.3993 6.03144C22.3993 4.73457 21.8839 3.50038 20.9769 2.57994C20.0699 1.65949 18.8538 1.13654 17.5758 1.13653H14.154M6.85667 5.95429L17.1221 5.95429" stroke="black" stroke-width="1.625" stroke-linecap="round" stroke-linejoin="round"/>
</svg>
