<svg width="22" height="20" viewBox="0 0 22 20" fill="none" xmlns="http://www.w3.org/2000/svg">
<path d="M19.7494 3.99985H14.7496V2.80009C14.7496 1.80734 13.9086 1 12.8746 1H9.1245C8.09042 1 7.24947 1.80734 7.24947 2.80009V3.99985H2.24971C1.56063 3.99985 1 4.53808 1 5.19961V17.8002C1 18.4618 1.56063 19 2.24971 19H19.7503C20.4394 19 21 18.4618 21 17.8002V5.19961C21 4.53808 20.4394 3.99985 19.7494 3.99985ZM8.49918 2.80009C8.49918 2.46887 8.7795 2.19976 9.1245 2.19976H12.8746C13.2196 2.19976 13.4999 2.46887 13.4999 2.80009V3.99985H8.50012V2.80009H8.49918ZM19.7494 5.20051V9.40102H12.8746C12.8746 8.9249 12.6796 8.47397 12.3214 8.12836C11.9642 7.78814 11.4945 7.60093 10.9995 7.60093C9.96545 7.60093 9.1245 8.40827 9.1245 9.40102H2.24971V5.20051H19.7494ZM10.3742 9.40012C10.3742 9.0689 10.6545 8.79979 10.9995 8.79979C11.1627 8.79979 11.3192 8.86369 11.4383 8.9762C11.5583 9.0923 11.6249 9.24261 11.6249 9.39922V11.1993C11.6249 11.5305 11.3445 11.7996 10.9995 11.7996C10.8355 11.7996 10.6798 11.7366 10.5608 11.6223C10.4408 11.5062 10.3742 11.3568 10.3742 11.2002V9.40012ZM2.24971 17.8011V10.6008H9.1245V11.2011C9.1245 11.6781 9.32044 12.1291 9.67576 12.4711C10.0311 12.8131 10.5008 13.0012 10.9995 13.0012C12.0336 13.0012 12.8746 12.1939 12.8746 11.2011V10.6008H19.7494V17.8011H2.24971Z" fill="black" stroke="black" stroke-width="0.2"/>
</svg>
