<svg width="24" height="21" viewBox="0 0 24 21" fill="none" xmlns="http://www.w3.org/2000/svg">
<path d="M21.8164 16.328C22.9301 16.065 23.7651 15.0618 23.7651 13.8678V10.2126C23.7651 8.97397 22.8657 7.94048 21.6876 7.72485L19.9243 0H3.84078L2.07752 7.72485C0.899386 7.94049 0 8.97397 0 10.2126V13.8678C0 15.0631 0.83496 16.0663 1.94867 16.328V17.6744C1.94867 19.1221 3.1268 20.2963 4.57055 20.2963C6.0143 20.2963 7.19244 19.1182 7.19244 17.6744V16.399H16.57V17.6744C16.57 19.1221 17.7482 20.2963 19.1919 20.2963C20.6357 20.2963 21.8138 19.1182 21.8138 17.6744V16.328H21.8164ZM4.91494 1.34617H18.8539L20.3016 7.68116H3.46711L4.91494 1.34617ZM5.84718 17.6744C5.84718 18.3779 5.27521 18.9499 4.57173 18.9499C3.86825 18.9499 3.29628 18.3779 3.29628 17.6744V16.399H5.84714L5.84718 17.6744ZM7.19361 15.0486H2.52854C1.87505 15.0486 1.34385 14.5174 1.34385 13.8639V10.2087C1.34385 9.55516 1.87505 9.02396 2.52854 9.02396H21.2339C21.8874 9.02396 22.4186 9.55516 22.4186 10.2087V13.8639C22.4186 14.5174 21.8874 15.0486 21.2339 15.0486H7.19361ZM20.4698 17.6744C20.4698 18.3779 19.8979 18.9499 19.1944 18.9499C18.4909 18.9499 17.9189 18.3779 17.9189 17.6744V16.399H20.4698L20.4698 17.6744Z" fill="black"/>
<path d="M18.5975 10.0142C17.4799 10.0142 16.5713 10.9227 16.5713 12.0404C16.5713 13.158 17.4799 14.0666 18.5975 14.0666C19.7152 14.0666 20.6237 13.158 20.6237 12.0404C20.6237 10.9227 19.7152 10.0142 18.5975 10.0142ZM18.5975 12.7202C18.2241 12.7202 17.9177 12.4138 17.9177 12.0404C17.9177 11.667 18.2241 11.3606 18.5975 11.3606C18.9709 11.3606 19.2773 11.667 19.2773 12.0404C19.2773 12.4138 18.9709 12.7202 18.5975 12.7202Z" fill="black"/>
<path d="M5.16733 10.0142C4.04969 10.0142 3.14111 10.9227 3.14111 12.0404C3.14111 13.158 4.04969 14.0666 5.16733 14.0666C6.28498 14.0666 7.19355 13.158 7.19355 12.0404C7.19355 10.9227 6.28498 10.0142 5.16733 10.0142ZM5.16733 12.7202C4.7939 12.7202 4.48755 12.4138 4.48755 12.0404C4.48755 11.667 4.79392 11.3606 5.16733 11.3606C5.54075 11.3606 5.84712 11.667 5.84712 12.0404C5.84712 12.4138 5.54075 12.7202 5.16733 12.7202Z" fill="black"/>
</svg>
