<svg width="24" height="24" viewBox="0 0 24 24" fill="none" xmlns="http://www.w3.org/2000/svg">
<g clip-path="url(#clip0_238_5719)">
<path d="M7.69687 10.3875H3.7125C2.18437 10.3875 0.9375 9.14063 0.9375 7.60313V3.57188C0.9375 2.04375 2.18437 0.796875 3.7125 0.796875H7.69687C9.23437 0.796875 10.4719 2.04375 10.4719 3.57188V7.60313C10.4812 9.14063 9.23437 10.3875 7.69687 10.3875ZM3.7125 2.14688C2.925 2.14688 2.27812 2.79375 2.27812 3.58125V7.6125C2.27812 8.4 2.925 9.04688 3.7125 9.04688H7.69687C8.48437 9.04688 9.13125 8.4 9.13125 7.6125V3.58125C9.13125 2.79375 8.48437 2.14688 7.69687 2.14688H3.7125Z" fill="black"/>
<path d="M7.69687 21.3656H3.7125C2.175 21.3656 0.9375 20.1188 0.9375 18.5813V14.55C0.9375 13.0125 2.18437 11.775 3.7125 11.775H7.69687C9.23437 11.775 10.4719 13.0219 10.4719 14.55V18.5813C10.4812 20.1188 9.23437 21.3656 7.69687 21.3656ZM3.7125 13.125C2.925 13.125 2.27812 13.7719 2.27812 14.5594V18.5906C2.27812 19.3781 2.925 20.025 3.7125 20.025H7.69687C8.48437 20.025 9.13125 19.3781 9.13125 18.5906V14.5594C9.13125 13.7719 8.48437 13.125 7.69687 13.125H3.7125Z" fill="black"/>
<path d="M18.5626 10.3875H14.5782C13.0407 10.3875 11.8032 9.14065 11.8032 7.61252V3.58127C11.8032 2.04377 13.0501 0.806274 14.5782 0.806274H18.5626C20.1001 0.806274 21.3376 2.05315 21.3376 3.58127V7.61252C21.347 9.14065 20.1001 10.3875 18.5626 10.3875ZM14.5782 2.1469C13.7907 2.1469 13.1438 2.79377 13.1438 3.58127V7.61252C13.1438 8.40002 13.7907 9.0469 14.5782 9.0469H18.5626C19.3501 9.0469 19.997 8.40002 19.997 7.61252V3.58127C19.997 2.79377 19.3501 2.1469 18.5626 2.1469H14.5782Z" fill="black"/>
<path d="M16.8751 21.3657C14.2313 21.3657 12.0845 19.2094 12.0845 16.575C12.0845 13.9313 14.2313 11.7844 16.8751 11.7844C19.5188 11.7844 21.6657 13.9407 21.6657 16.575C21.6657 19.2094 19.5188 21.3657 16.8751 21.3657ZM16.8751 13.125C14.972 13.125 13.4251 14.6719 13.4251 16.575C13.4251 18.4782 14.972 20.025 16.8751 20.025C18.7782 20.025 20.3251 18.4782 20.3251 16.575C20.3251 14.6719 18.7782 13.125 16.8751 13.125Z" fill="black"/>
<path d="M22.3876 23.2031C22.2188 23.2031 22.0407 23.1375 21.9095 23.0062L19.0782 20.175C18.8157 19.9125 18.8157 19.4906 19.0782 19.2187C19.3407 18.9562 19.7626 18.9562 20.0345 19.2187L22.8657 22.05C23.1282 22.3125 23.1282 22.7343 22.8657 23.0062C22.7345 23.1375 22.5657 23.2031 22.3876 23.2031Z" fill="black"/>
</g>
<defs>
<clipPath id="clip0_238_5719">
<rect width="24" height="24" fill="white"/>
</clipPath>
</defs>
</svg>
