<svg width="23" height="24" viewBox="0 0 23 24" fill="none" xmlns="http://www.w3.org/2000/svg">
<path d="M15.2656 15.3912C15.6888 15.5323 16.1462 15.3036 16.2872 14.8804C16.4283 14.4572 16.1996 13.9998 15.7764 13.8588L15.2656 15.3912ZM11.5835 13.3125H10.7758C10.7758 13.6602 10.9983 13.9688 11.3281 14.0787L11.5835 13.3125ZM12.3912 7.82435C12.3912 7.37827 12.0296 7.01666 11.5835 7.01666C11.1374 7.01666 10.7758 7.37827 10.7758 7.82435H12.3912ZM15.521 14.625L15.7764 13.8588L11.8389 12.5463L11.5835 13.3125L11.3281 14.0787L15.2656 15.3912L15.521 14.625ZM11.5835 13.3125H12.3912V7.82435H11.5835H10.7758V13.3125H11.5835ZM22.0835 12H21.2758C21.2758 17.3529 16.9364 21.6923 11.5835 21.6923V22.5V23.3077C17.8286 23.3077 22.8912 18.2451 22.8912 12H22.0835ZM11.5835 22.5V21.6923C6.23058 21.6923 1.89119 17.3529 1.89119 12H1.0835H0.275804C0.275804 18.2451 5.33843 23.3077 11.5835 23.3077V22.5ZM1.0835 12H1.89119C1.89119 6.64709 6.23058 2.30769 11.5835 2.30769V1.5V0.692308C5.33843 0.692308 0.275804 5.75493 0.275804 12H1.0835ZM11.5835 1.5V2.30769C16.9364 2.30769 21.2758 6.64709 21.2758 12H22.0835H22.8912C22.8912 5.75493 17.8286 0.692308 11.5835 0.692308V1.5Z" fill="black"/>
</svg>
