<svg width="24" height="21" viewBox="0 0 24 21" fill="none" xmlns="http://www.w3.org/2000/svg">
<path fill-rule="evenodd" clip-rule="evenodd" d="M13.574 13.9048C13.5818 14.1036 13.4253 14.2714 13.2238 14.2791C13.0233 14.2869 12.854 14.1317 12.8462 13.933C12.8325 13.6081 12.7543 13.3696 12.6085 13.2222C12.4813 13.0932 12.2828 13.0195 12.0118 13.0021H12.0001C11.9844 13.0021 11.9698 13.0011 11.9541 12.9991L11.9248 12.9982C11.779 13.0001 11.643 13.0399 11.5266 13.1078C11.4063 13.1776 11.3065 13.2765 11.2381 13.3919C11.1706 13.5034 11.1334 13.6285 11.1334 13.7555C11.1344 13.866 11.1637 13.9804 11.2283 14.09C11.3584 14.3101 11.7565 14.4973 12.1547 14.6835C12.6535 14.9172 13.1534 15.1518 13.3979 15.5649C13.531 15.7899 13.5916 16.0284 13.5926 16.2621C13.5936 16.5249 13.5192 16.7789 13.3862 17C13.2551 17.2172 13.0673 17.4034 12.8404 17.5353C12.6966 17.6187 12.5361 17.6807 12.365 17.7147V18.2014C12.365 18.4012 12.2016 18.5631 12.0001 18.5631C11.7986 18.5631 11.6352 18.4012 11.6352 18.2014V17.6992C11.3212 17.6352 11.0679 17.5023 10.8703 17.3026C10.5935 17.0223 10.4487 16.6267 10.4272 16.1166C10.4193 15.9169 10.5759 15.7491 10.7764 15.7424C10.9779 15.7346 11.1461 15.8888 11.154 16.0885C11.1677 16.4134 11.2459 16.6509 11.3917 16.7993C11.5198 16.9292 11.7174 17.0029 11.9874 17.0194L12.0001 17.0184C12.0158 17.0184 12.0314 17.0194 12.0471 17.0214L12.0744 17.0223C12.2212 17.0214 12.3562 16.9806 12.4726 16.9128C12.5919 16.8429 12.6917 16.744 12.7611 16.6286C12.8286 16.5171 12.8658 16.392 12.8658 16.265C12.8648 16.1545 12.8355 16.041 12.7709 15.9305C12.6408 15.7104 12.2427 15.5232 11.8446 15.337C11.3457 15.1033 10.8458 14.8687 10.6013 14.4556C10.4682 14.2306 10.4076 13.9921 10.4066 13.7594C10.4056 13.4966 10.481 13.2425 10.614 13.0214C10.7451 12.8042 10.9329 12.6181 11.1598 12.4862C11.3036 12.4028 11.464 12.3407 11.6352 12.3068V11.82C11.6352 11.6203 11.7986 11.4583 12.0001 11.4583C12.2016 11.4583 12.3649 11.6203 12.3649 11.82V12.3223C12.678 12.3863 12.9323 12.5192 13.1299 12.7189C13.4067 12.9992 13.5515 13.3948 13.574 13.9048ZM8.28791 18.3798C8.3378 18.4331 8.38866 18.4865 8.44051 18.5379C9.3512 19.4406 10.6102 19.9992 12.0002 19.9992C13.3902 19.9992 14.6481 19.4416 15.5589 18.5379C15.6107 18.4855 15.6626 18.4331 15.7125 18.3798C16.0363 18.8113 16.4461 19.1759 16.9166 19.4494C17.5172 19.7994 18.2157 19.9991 18.9581 19.9991C20.0742 19.9991 21.0847 19.5512 21.8164 18.8258C22.5481 18.1015 23 17.0988 23 15.9924C23 14.8861 22.5471 13.8844 21.8164 13.1591C21.5141 12.8594 21.1629 12.6063 20.7775 12.4134L20.802 8.20974H22.0746C22.1705 8.20974 22.2673 8.17096 22.3387 8.09629C22.4776 7.95181 22.4718 7.72297 22.326 7.58527L19.3092 4.7499C19.1694 4.61803 18.9483 4.61609 18.8064 4.7499L15.8092 7.56864C15.728 7.63457 15.6762 7.73542 15.6762 7.8479C15.6762 8.04766 15.8395 8.20959 16.041 8.20959H17.3136L17.3332 12.3239C17.0407 12.4509 16.7659 12.6119 16.5154 12.801C16.2709 12.3103 15.9461 11.8643 15.5597 11.4812C15.0462 10.9721 14.4221 10.5717 13.7256 10.3205L13.7462 4.55968H15.0178C15.2193 4.55968 15.3827 4.39775 15.3827 4.198C15.3827 4.08552 15.3308 3.98467 15.2496 3.91873L12.2524 1.1C12.1106 0.966184 11.8895 0.967152 11.7496 1.1L8.73182 3.93636C8.58607 4.07405 8.5802 4.3029 8.7191 4.44738C8.79051 4.52204 8.88638 4.55986 8.98322 4.55986L10.2558 4.56083L10.2813 10.3197C9.58284 10.5708 8.95679 10.9713 8.44128 11.4823C8.05489 11.8654 7.73112 12.3114 7.48559 12.8021C7.26354 12.6343 7.02191 12.4889 6.76661 12.3696L6.78618 8.21061H8.0588C8.26031 8.21061 8.42366 8.04868 8.42366 7.84893C8.42366 7.73645 8.37181 7.6356 8.29062 7.56966L5.29237 4.75093C5.15053 4.61711 4.92946 4.61905 4.79056 4.75093L1.77377 7.58629C1.62802 7.72399 1.62215 7.95284 1.76106 8.09732C1.83247 8.17198 1.92833 8.2098 2.02517 8.2098L3.2978 8.21077L3.32225 12.3658C2.89674 12.5645 2.5123 12.8341 2.18363 13.1599C1.45193 13.8852 1 14.8869 1 15.9933C1 17.0997 1.45291 18.1014 2.18363 18.8267C2.91532 19.552 3.92578 20 5.04189 20C5.78534 20 6.48277 19.8002 7.08435 19.4502C7.55389 19.1758 7.96412 18.8113 8.28791 18.3798ZM4.04833 12.1068L4.0229 7.87713L4.02388 7.84707C4.02388 7.64732 3.86052 7.48539 3.65902 7.48539H2.93907L5.0412 5.50823L7.14333 7.48539H6.42338V7.48733C6.22285 7.48733 6.06048 7.64829 6.0595 7.8461L6.03994 12.1098C5.72008 12.0284 5.38552 11.9857 5.04119 11.9857C4.69882 11.9857 4.36624 12.0273 4.04833 12.1068ZM7.20109 13.5012C7.04947 13.9774 6.96731 14.4845 6.96731 15.01C6.96731 16.0369 7.28033 16.9921 7.81735 17.7853C7.53661 18.212 7.15903 18.5688 6.71591 18.8268C6.22584 19.1118 5.65456 19.2748 5.04222 19.2748C4.12762 19.2748 3.30006 18.9073 2.70041 18.3128C2.10078 17.7184 1.73102 16.8981 1.73102 15.9914C1.73102 15.0848 2.10176 14.2644 2.70041 13.67C3.30004 13.0756 4.12759 12.7091 5.04222 12.7091C5.48926 12.7091 5.91282 12.7954 6.29821 12.9515C6.62884 13.0872 6.93307 13.2734 7.20109 13.5012ZM4.67638 13.4789C4.67638 13.2792 4.83974 13.1173 5.04124 13.1173C5.24275 13.1173 5.4061 13.2792 5.4061 13.4789V13.8135C5.63989 13.8707 5.83356 13.9783 5.98617 14.1335C6.218 14.3682 6.3393 14.6969 6.35691 15.1187C6.36473 15.3175 6.20822 15.4852 6.0077 15.493C5.80717 15.5007 5.63793 15.3466 5.63012 15.1468C5.62034 14.9112 5.56556 14.7405 5.46481 14.6377C5.37872 14.5505 5.24178 14.5 5.05202 14.4874H5.04126C5.02658 14.4874 5.01093 14.4865 4.99626 14.4845L4.98159 14.4836C4.88083 14.4855 4.7879 14.5126 4.70768 14.5592C4.62453 14.6077 4.55606 14.6756 4.50715 14.756C4.46118 14.8326 4.43574 14.918 4.43574 15.0033C4.43574 15.077 4.45628 15.1536 4.5003 15.2283C4.5903 15.3805 4.89353 15.523 5.19579 15.6646C5.59979 15.8537 6.00379 16.0438 6.20823 16.3899C6.32072 16.58 6.37158 16.7807 6.37256 16.9776C6.37354 17.1987 6.31094 17.413 6.19844 17.5982C6.08889 17.7795 5.9314 17.9366 5.74163 18.0462C5.63794 18.1063 5.52545 18.1528 5.40512 18.1829V18.5048C5.40512 18.7046 5.24176 18.8665 5.04026 18.8665C4.83875 18.8665 4.6754 18.7046 4.6754 18.5048V18.1712C4.44162 18.1131 4.24794 18.0064 4.09534 17.8503C3.8635 17.6156 3.7422 17.2869 3.72459 16.8661C3.71677 16.6673 3.87328 16.4985 4.0738 16.4918C4.27433 16.484 4.44357 16.6392 4.45138 16.8379C4.46116 17.0745 4.51594 17.2452 4.61669 17.348C4.70278 17.4353 4.83972 17.4857 5.02851 17.4973H5.03927C5.05492 17.4973 5.06959 17.4983 5.08524 17.5002H5.09894C5.19969 17.4993 5.29262 17.4711 5.37284 17.4246C5.45599 17.3761 5.52446 17.3073 5.57337 17.2277C5.61935 17.1521 5.64478 17.0668 5.64478 16.9805C5.64478 16.9058 5.62424 16.8292 5.58022 16.7555C5.49023 16.6023 5.18699 16.4607 4.88474 16.3192C4.48074 16.1301 4.07674 15.94 3.8723 15.5938C3.7598 15.4038 3.70894 15.2031 3.70796 15.0062C3.70698 14.7851 3.76959 14.5708 3.88208 14.3856C3.99164 14.2043 4.14912 14.0472 4.33889 13.9376C4.44258 13.8775 4.55507 13.831 4.6754 13.8009L4.67638 13.4789ZM18.059 12.0855L18.0394 7.84611C18.0384 7.64733 17.876 7.48734 17.6755 7.48734V7.4854H16.9556L19.0577 5.50824L21.1598 7.4854H20.4399C20.2384 7.4854 20.075 7.64733 20.075 7.84708L20.076 7.87714L20.0515 12.1332C19.7043 12.0362 19.3375 11.9848 18.9589 11.9848C18.6498 11.9858 18.3485 12.0205 18.059 12.0855ZM16.1828 17.7863C16.7198 16.9921 17.0328 16.0379 17.0328 15.011C17.0328 14.4854 16.9507 13.9783 16.799 13.5022C17.0671 13.2743 17.3713 13.0871 17.7019 12.9533C18.0873 12.7963 18.5109 12.7109 18.9579 12.7109C19.8725 12.7109 20.7011 13.0784 21.2997 13.6719C21.8994 14.2663 22.2701 15.0866 22.2701 15.9933C22.2701 16.9 21.8994 17.7203 21.2997 18.3147C20.7001 18.9091 19.8725 19.2766 18.9579 19.2766C18.3456 19.2766 17.7733 19.1127 17.2842 18.8286C16.8421 18.5697 16.4635 18.212 16.1828 17.7863ZM18.5931 13.4789C18.5931 13.2791 18.7564 13.1172 18.9579 13.1172C19.1594 13.1172 19.3228 13.2791 19.3228 13.4789V13.8134C19.5566 13.8706 19.7502 13.9783 19.9038 14.1334C20.1357 14.3681 20.257 14.6968 20.2746 15.1186C20.2824 15.3174 20.1259 15.4852 19.9254 15.4929C19.7238 15.5007 19.5556 15.3465 19.5478 15.1467C19.538 14.9111 19.4832 14.7405 19.3825 14.6377C19.2964 14.5504 19.1594 14.5 18.9697 14.4874H18.9589C18.9433 14.4874 18.9286 14.4864 18.9139 14.4844L18.8992 14.4835C18.7985 14.4854 18.7056 14.5126 18.6253 14.5591C18.5422 14.6076 18.4737 14.6755 18.4248 14.756C18.3788 14.8326 18.3534 14.9179 18.3534 15.0032C18.3534 15.0769 18.3739 15.1535 18.418 15.2282C18.5079 15.3804 18.8112 15.523 19.1134 15.6645C19.5174 15.8536 19.9214 16.0437 20.1259 16.3899C20.2384 16.5799 20.2892 16.7806 20.2902 16.9775C20.2912 17.1986 20.2286 17.4129 20.1161 17.5981C20.0065 17.7794 19.849 17.9365 19.6593 18.0461C19.5556 18.1062 19.4431 18.1527 19.3228 18.1828V18.5047C19.3228 18.7045 19.1594 18.8664 18.9579 18.8664C18.7564 18.8664 18.5931 18.7045 18.5931 18.5047V18.1712C18.3593 18.113 18.1656 18.0063 18.013 17.8502C17.7812 17.6155 17.6598 17.2868 17.6422 16.866C17.6344 16.6672 17.7909 16.4985 17.9915 16.4917C18.193 16.4839 18.3622 16.6391 18.369 16.8379C18.3788 17.0745 18.4336 17.2451 18.5343 17.3479C18.6204 17.4352 18.7574 17.4856 18.9462 17.4972H18.9579C18.9735 17.4972 18.9882 17.4982 19.0039 17.5001H19.0176C19.1183 17.4992 19.2113 17.4711 19.2915 17.4245C19.3746 17.376 19.4441 17.3072 19.492 17.2277C19.538 17.152 19.5634 17.0667 19.5634 16.9804C19.5634 16.9057 19.5429 16.8291 19.4989 16.7554C19.4079 16.6022 19.1056 16.4607 18.8034 16.3191C18.3994 16.13 17.9954 15.94 17.7909 15.5938C17.6784 15.4037 17.6276 15.203 17.6266 15.0061C17.6256 14.785 17.6882 14.5708 17.8007 14.3855C17.9103 14.2042 18.0678 14.0471 18.2575 13.9375C18.3612 13.8774 18.4737 13.8309 18.594 13.8008L18.5931 13.4789ZM12.9977 10.119C12.6749 10.054 12.3413 10.021 12 10.021C11.6605 10.021 11.3289 10.054 11.0081 10.118L10.9817 4.22907L10.9826 4.19901C10.9826 3.99926 10.8193 3.83733 10.6178 3.83733L9.89783 3.83636L12 1.8592L14.1021 3.83636H13.3821V3.8383C13.1816 3.8383 13.0183 4.00024 13.0183 4.19902L12.9977 10.119ZM15.0422 11.9943C14.2635 11.2225 13.1875 10.7444 12.0001 10.7444C10.8116 10.7444 9.73653 11.2225 8.957 11.9943C8.17835 12.7662 7.6971 13.8328 7.6971 15.0099C7.6971 16.1881 8.17837 17.2547 8.957 18.0255C9.73565 18.7974 10.8116 19.2754 12.0001 19.2754C13.1885 19.2754 14.2636 18.7974 15.0422 18.0255C15.8208 17.2536 16.3021 16.187 16.3021 15.0099C16.303 13.8318 15.8208 12.7661 15.0422 11.9943Z" fill="white" stroke="white" stroke-width="0.5"/>
</svg>
