<svg width="26" height="23" viewBox="0 0 26 23" fill="none" xmlns="http://www.w3.org/2000/svg">
<path fill-rule="evenodd" clip-rule="evenodd" d="M14.7396 15.2632C14.7482 15.4829 14.5753 15.6684 14.3526 15.6769C14.1309 15.6855 13.9439 15.514 13.9352 15.2943C13.9201 14.9353 13.8336 14.6716 13.6725 14.5087C13.532 14.3662 13.3125 14.2847 13.013 14.2654H13C12.9827 14.2654 12.9665 14.2644 12.9492 14.2622L12.9168 14.2611C12.7557 14.2633 12.6054 14.3072 12.4768 14.3823C12.3438 14.4594 12.2335 14.5687 12.1578 14.6963C12.0832 14.8195 12.0421 14.9578 12.0421 15.0982C12.0432 15.2203 12.0757 15.3468 12.147 15.4679C12.2908 15.7112 12.7308 15.918 13.1709 16.1238C13.7223 16.3821 14.2747 16.6415 14.545 17.098C14.6921 17.3467 14.7591 17.6103 14.7602 17.8686C14.7612 18.1591 14.6791 18.4399 14.532 18.6842C14.3872 18.9243 14.1796 19.1301 13.9287 19.2758C13.7698 19.368 13.5925 19.4366 13.4033 19.4741V20.0121C13.4033 20.2329 13.2228 20.4119 13 20.4119C12.7773 20.4119 12.5968 20.2329 12.5968 20.0121V19.457C12.2497 19.3862 11.9697 19.2394 11.7513 19.0186C11.4453 18.7089 11.2853 18.2716 11.2616 17.7079C11.2529 17.4871 11.4259 17.3017 11.6475 17.2942C11.8702 17.2856 12.0562 17.456 12.0648 17.6768C12.08 18.0358 12.1665 18.2984 12.3276 18.4624C12.4692 18.606 12.6876 18.6875 12.986 18.7057L13 18.7046C13.0173 18.7046 13.0346 18.7057 13.0519 18.7078L13.0822 18.7089C13.2444 18.7078 13.3936 18.6628 13.5222 18.5878C13.6541 18.5106 13.7644 18.4013 13.8412 18.2738C13.9158 18.1505 13.9569 18.0123 13.9569 17.8719C13.9558 17.7497 13.9233 17.6243 13.852 17.5021C13.7082 17.2588 13.2681 17.052 12.8281 16.8462C12.2767 16.5879 11.7243 16.3286 11.454 15.872C11.3069 15.6233 11.2399 15.3597 11.2388 15.1025C11.2377 14.812 11.321 14.5312 11.468 14.2868C11.6129 14.0468 11.8205 13.841 12.0713 13.6953C12.2303 13.6031 12.4076 13.5345 12.5968 13.497V12.959C12.5968 12.7382 12.7773 12.5592 13 12.5592C13.2227 12.5592 13.4033 12.7382 13.4033 12.959V13.5141C13.7493 13.5849 14.0304 13.7317 14.2488 13.9525C14.5547 14.2622 14.7147 14.6995 14.7396 15.2632ZM8.8971 20.2092C8.95224 20.2682 9.00846 20.3271 9.06576 20.3839C10.0723 21.3817 11.4638 21.9991 13.0002 21.9991C14.5365 21.9991 15.9268 21.3828 16.9334 20.3839C16.9907 20.3261 17.048 20.2682 17.1032 20.2092C17.4611 20.6862 17.9141 21.0891 18.4341 21.3914C19.0979 21.7783 19.8699 21.9991 20.6905 21.9991C21.9241 21.9991 23.0409 21.5039 23.8496 20.7022C24.6583 19.9016 25.1578 18.7935 25.1578 17.5706C25.1578 16.3477 24.6573 15.2406 23.8496 14.439C23.5155 14.1078 23.1274 13.8281 22.7014 13.6148L22.7285 8.96866H24.135C24.241 8.96866 24.348 8.92579 24.427 8.84327C24.5805 8.68358 24.574 8.43065 24.4129 8.27846L21.0786 5.14463C20.924 4.99887 20.6796 4.99673 20.5229 5.14463L17.2101 8.26007C17.1204 8.33295 17.0631 8.44442 17.0631 8.56874C17.0631 8.78952 17.2436 8.96849 17.4663 8.96849H18.8729L18.8945 13.5159C18.5713 13.6563 18.2675 13.8342 17.9907 14.0432C17.7204 13.5008 17.3615 13.0079 16.9344 12.5845C16.3668 12.0218 15.677 11.5792 14.9072 11.3016L14.9299 4.93438H16.3354C16.5581 4.93438 16.7387 4.7554 16.7387 4.53463C16.7387 4.41031 16.6814 4.29884 16.5917 4.22597L13.2789 1.11052C13.1221 0.962624 12.8778 0.963694 12.7232 1.11052L9.38774 4.24545C9.22665 4.39764 9.22016 4.65058 9.37368 4.81026C9.45261 4.89278 9.55856 4.93458 9.6656 4.93458L11.0722 4.93565L11.1003 11.3007C10.3283 11.5783 9.63639 12.0209 9.06662 12.5857C8.63955 13.0091 8.2817 13.5021 8.01032 14.0444C7.7649 13.859 7.49784 13.6982 7.21566 13.5664L7.23729 8.96962H8.64387C8.86659 8.96962 9.04714 8.79064 9.04714 8.56987C9.04714 8.44555 8.98984 8.33409 8.9001 8.26121L5.58624 5.14576C5.42947 4.99786 5.18513 5.00001 5.0316 5.14576L1.69726 8.27959C1.53617 8.43178 1.52968 8.68472 1.68321 8.8444C1.76213 8.92693 1.86809 8.96872 1.97513 8.96872L3.38171 8.9698L3.40874 13.5622C2.93844 13.7819 2.51353 14.0798 2.15026 14.4399C1.34154 15.2416 0.842041 16.3487 0.842041 17.5715C0.842041 18.7944 1.34262 19.9015 2.15026 20.7032C2.95898 21.5049 4.0758 22 5.3094 22C6.1311 22 6.90195 21.7792 7.56685 21.3923C8.08581 21.089 8.53922 20.6862 8.8971 20.2092ZM4.21125 13.276L4.18314 8.60104L4.18422 8.56781C4.18422 8.34703 4.00367 8.16806 3.78096 8.16806H2.98522L5.30863 5.98278L7.63204 8.16806H6.83631V8.1702C6.61467 8.1702 6.4352 8.34811 6.43412 8.56675L6.4125 13.2793C6.05897 13.1893 5.68919 13.1421 5.30862 13.1421C4.93021 13.1421 4.56262 13.1881 4.21125 13.276ZM7.69588 14.8172C7.5283 15.3434 7.43748 15.9039 7.43748 16.4848C7.43748 17.6198 7.78346 18.6755 8.37701 19.5522C8.06671 20.0238 7.64939 20.4182 7.15963 20.7033C6.61797 21.0184 5.98656 21.1984 5.30976 21.1984C4.29888 21.1984 3.38421 20.7922 2.72144 20.1353C2.0587 19.4783 1.65001 18.5716 1.65001 17.5695C1.65001 16.5674 2.05978 15.6607 2.72144 15.0037C3.38419 14.3467 4.29885 13.9416 5.30976 13.9416C5.80386 13.9416 6.272 14.037 6.69796 14.2095C7.06339 14.3596 7.39965 14.5653 7.69588 14.8172ZM4.90541 14.7925C4.90541 14.5717 5.08596 14.3928 5.30867 14.3928C5.53139 14.3928 5.71194 14.5717 5.71194 14.7925V15.1623C5.97034 15.2255 6.1844 15.3445 6.35307 15.516C6.6093 15.7753 6.74338 16.1386 6.76284 16.6049C6.77149 16.8246 6.5985 17.01 6.37687 17.0186C6.15523 17.0271 5.96818 16.8567 5.95954 16.636C5.94873 16.3755 5.88819 16.1869 5.77683 16.0733C5.68168 15.9768 5.53032 15.9211 5.32059 15.9072H5.30869C5.29248 15.9072 5.27518 15.9061 5.25896 15.9039L5.24274 15.9029C5.13138 15.905 5.02867 15.935 4.94 15.9865C4.8481 16.0401 4.77242 16.1151 4.71836 16.204C4.66755 16.2887 4.63944 16.383 4.63944 16.4773C4.63944 16.5588 4.66214 16.6435 4.71079 16.726C4.81026 16.8942 5.14542 17.0518 5.47949 17.2083C5.92601 17.4173 6.37254 17.6273 6.5985 18.0099C6.72284 18.22 6.77906 18.4418 6.78014 18.6594C6.78122 18.9038 6.71202 19.1406 6.58769 19.3453C6.4666 19.5458 6.29253 19.7194 6.08279 19.8405C5.96819 19.9069 5.84386 19.9584 5.71086 19.9916V20.3474C5.71086 20.5682 5.53031 20.7472 5.30759 20.7472C5.08487 20.7472 4.90433 20.5682 4.90433 20.3474V19.9787C4.64593 19.9144 4.43187 19.7965 4.2632 19.624C4.00697 19.3646 3.87289 19.0013 3.85343 18.5362C3.84478 18.3165 4.01777 18.13 4.2394 18.1225C4.46104 18.1139 4.64809 18.2854 4.65672 18.5051C4.66753 18.7666 4.72808 18.9552 4.83944 19.0688C4.93458 19.1653 5.08594 19.221 5.2946 19.2339H5.30649C5.32379 19.2339 5.34001 19.2349 5.35731 19.2371H5.37244C5.4838 19.236 5.58652 19.2049 5.67518 19.1535C5.76708 19.0999 5.84276 19.0238 5.89682 18.9359C5.94764 18.8523 5.97575 18.758 5.97575 18.6626C5.97575 18.5801 5.95304 18.4954 5.90439 18.414C5.80492 18.2446 5.46977 18.0882 5.1357 17.9317C4.68917 17.7227 4.24265 17.5127 4.01668 17.13C3.89235 16.92 3.83613 16.6981 3.83505 16.4805C3.83397 16.2362 3.90316 15.9993 4.0275 15.7946C4.14859 15.5942 4.32265 15.4206 4.53239 15.2995C4.647 15.233 4.77133 15.1816 4.90433 15.1484L4.90541 14.7925ZM19.6967 13.2524L19.6751 8.56676C19.674 8.34705 19.4945 8.17021 19.2729 8.17021V8.16807H18.4771L20.8006 5.98279L23.124 8.16807H22.3282C22.1055 8.16807 21.925 8.34705 21.925 8.56782L21.926 8.60105L21.899 13.3051C21.5152 13.1979 21.1098 13.1411 20.6914 13.1411C20.3497 13.1422 20.0167 13.1806 19.6967 13.2524ZM17.623 19.5533C18.2166 18.6755 18.5625 17.6209 18.5625 16.4858C18.5625 15.9049 18.4717 15.3444 18.3041 14.8182C18.6004 14.5663 18.9366 14.3595 19.3021 14.2116C19.7281 14.038 20.1962 13.9437 20.6903 13.9437C21.7011 13.9437 22.6169 14.3499 23.2786 15.0058C23.9413 15.6627 24.3511 16.5694 24.3511 17.5715C24.3511 18.5736 23.9413 19.4803 23.2786 20.1373C22.6158 20.7943 21.7012 21.2005 20.6903 21.2005C20.0135 21.2005 19.381 21.0194 18.8404 20.7053C18.3517 20.4192 17.9333 20.0237 17.623 19.5533ZM20.287 14.7924C20.287 14.5716 20.4676 14.3927 20.6903 14.3927C20.913 14.3927 21.0935 14.5717 21.0935 14.7924V15.1622C21.3519 15.2254 21.566 15.3444 21.7357 15.5159C21.992 15.7752 22.126 16.1386 22.1455 16.6048C22.1542 16.8245 21.9812 17.0099 21.7595 17.0185C21.5368 17.0271 21.3508 16.8566 21.3422 16.6359C21.3314 16.3754 21.2709 16.1868 21.1595 16.0732C21.0644 15.9767 20.913 15.921 20.7033 15.9071H20.6914C20.6741 15.9071 20.6578 15.906 20.6416 15.9039L20.6254 15.9028C20.514 15.9049 20.4113 15.9349 20.3227 15.9864C20.2308 16.04 20.1551 16.115 20.101 16.204C20.0502 16.2886 20.0221 16.3829 20.0221 16.4772C20.0221 16.5587 20.0448 16.6434 20.0935 16.7259C20.1929 16.8942 20.5281 17.0517 20.8622 17.2082C21.3087 17.4172 21.7552 17.6272 21.9812 18.0099C22.1055 18.2199 22.1617 18.4418 22.1628 18.6593C22.1639 18.9037 22.0947 19.1406 21.9704 19.3453C21.8493 19.5457 21.6752 19.7193 21.4655 19.8404C21.3509 19.9069 21.2265 19.9583 21.0935 19.9915V20.3473C21.0935 20.5681 20.913 20.7471 20.6903 20.7471C20.4675 20.7471 20.287 20.5681 20.287 20.3473V19.9787C20.0286 19.9143 19.8145 19.7965 19.6459 19.6239C19.3896 19.3645 19.2556 19.0012 19.2361 18.5361C19.2275 18.3164 19.4004 18.1299 19.6221 18.1224C19.8448 18.1138 20.0318 18.2853 20.0394 18.505C20.0502 18.7665 20.1107 18.9551 20.2221 19.0687C20.3173 19.1652 20.4686 19.2209 20.6773 19.2338H20.6902C20.7075 19.2338 20.7238 19.2349 20.7411 19.237H20.7562C20.8676 19.2359 20.9703 19.2049 21.0589 19.1534C21.1508 19.0998 21.2276 19.0237 21.2806 18.9358C21.3314 18.8522 21.3595 18.7579 21.3595 18.6625C21.3595 18.58 21.3368 18.4954 21.2881 18.4139C21.1876 18.2446 20.8535 18.0881 20.5194 17.9316C20.0729 17.7226 19.6264 17.5126 19.4004 17.1299C19.2761 16.9199 19.2199 16.698 19.2188 16.4805C19.2177 16.2361 19.2869 15.9993 19.4112 15.7945C19.5323 15.5941 19.7064 15.4205 19.9161 15.2994C20.0307 15.2329 20.1551 15.1815 20.2881 15.1483L20.287 14.7924ZM14.1027 11.0789C13.7459 11.0071 13.3772 10.9706 12.9999 10.9706C12.6247 10.9706 12.2582 11.0071 11.9036 11.0778L11.8744 4.56898L11.8755 4.53575C11.8755 4.31497 11.6949 4.136 11.4722 4.136L10.6765 4.13493L12.9999 1.94965L15.3233 4.13493H14.5276V4.13707C14.3059 4.13707 14.1254 4.31605 14.1254 4.53575L14.1027 11.0789ZM16.3623 13.1516C15.5017 12.2985 14.3124 11.7701 13 11.7701C11.6864 11.7701 10.4982 12.2985 9.63662 13.1516C8.77601 14.0047 8.2441 15.1836 8.2441 16.4846C8.2441 17.7868 8.77603 18.9657 9.63662 19.8177C10.4972 20.6708 11.6865 21.1992 13 21.1992C14.3136 21.1992 15.5018 20.6708 16.3623 19.8177C17.2229 18.9645 17.7548 17.7856 17.7548 16.4846C17.7559 15.1825 17.2229 14.0046 16.3623 13.1516Z" fill="black" stroke="black" stroke-width="0.442105"/>
</svg>
