<svg width="19" height="18" viewBox="0 0 19 18" fill="none" xmlns="http://www.w3.org/2000/svg">
<path d="M6.17965 12.1534H3.8452C2.36586 12.1534 1.16663 11.132 1.16663 9.63452C1.16663 8.137 2.36586 6.92301 3.8452 6.92301C3.9458 6.92301 4.0451 6.92863 4.14282 6.93957V6.92301H4.17966C4.15534 6.72562 4.14282 6.52452 4.14282 6.32046C4.14282 3.65819 6.27479 1.5 8.90472 1.5C10.6856 1.5 12.2382 2.48966 13.055 3.95535C13.2546 3.92562 13.4589 3.91023 13.6666 3.91023C15.9678 3.91023 17.8333 5.79865 17.8333 8.12813C17.8333 10.253 16.2811 11.8183 14.2619 12.1107H12.1041M9.20234 7.22429V16.5M9.20234 16.5L7.0911 14.4173M9.20234 16.5L11.2578 14.4173" stroke="black" stroke-width="1.4" stroke-linecap="round" stroke-linejoin="round"/>
</svg>
