<svg width="18" height="19" viewBox="0 0 18 19" fill="none" xmlns="http://www.w3.org/2000/svg">
<path fill-rule="evenodd" clip-rule="evenodd" d="M17.8765 9.328C17.8765 8.68126 17.8184 8.05939 17.7106 7.4624H9.12061V10.9905H14.0292C13.8178 12.1305 13.1752 13.0965 12.2092 13.7432V16.0317H15.1568C16.8815 14.4439 17.8765 12.1057 17.8765 9.328Z" fill="#4EA396"/>
<path fill-rule="evenodd" clip-rule="evenodd" d="M9.12031 18.2414C11.5829 18.2414 13.6475 17.4247 15.1565 16.0317L12.2089 13.7432C11.3922 14.2905 10.3475 14.6138 9.12031 14.6138C6.74478 14.6138 4.73408 13.0094 4.01687 10.8536H0.969727V13.2167C2.47049 16.1975 5.55495 18.2414 9.12031 18.2414Z" fill="#34A853"/>
<path fill-rule="evenodd" clip-rule="evenodd" d="M4.01725 10.8536C3.83484 10.3064 3.73119 9.72181 3.73119 9.12068C3.73119 8.51954 3.83484 7.93499 4.01725 7.38775V5.02466H0.97011C0.35239 6.25595 0 7.64893 0 9.12068C0 10.5924 0.35239 11.9854 0.97011 13.2167L4.01725 10.8536Z" fill="#FBBC05"/>
<path fill-rule="evenodd" clip-rule="evenodd" d="M9.12031 3.62755C10.4594 3.62755 11.6617 4.08773 12.6069 4.9915L15.2229 2.37553C13.6433 0.903777 11.5787 0 9.12031 0C5.55495 0 2.47049 2.04386 0.969727 5.02467L4.01687 7.38776C4.73408 5.23196 6.74478 3.62755 9.12031 3.62755Z" fill="#EA4335"/>
</svg>
