<svg width="8" height="10" viewBox="0 0 8 10" fill="none" xmlns="http://www.w3.org/2000/svg">
<path d="M3.99806 0C1.78882 0 0 1.77132 0 3.95469C0 5.47404 1.93287 8.10857 3.11153 9.57521C3.50048 10.0615 4.21519 10.1416 4.70485 9.75683C4.77198 9.70411 4.83318 9.64357 4.88847 9.57521C6.06713 8.11057 8 5.47404 8 3.95469C7.99605 1.77132 6.2074 0 3.99806 0ZM3.99806 5.52283C3.12343 5.52283 2.41465 4.82173 2.41262 3.95659C2.41065 3.09145 3.12141 2.38835 3.99604 2.38835C4.87067 2.38835 5.58147 3.08945 5.58147 3.95459C5.58147 4.82169 4.87269 5.52283 3.99806 5.52283Z" fill="#F9B453"/>
</svg>
