<svg width="12" height="14" viewBox="0 0 12 14" fill="none" xmlns="http://www.w3.org/2000/svg">
<path d="M5.99746 0.5C3.12545 0.5 0.799988 2.80271 0.799988 5.6411C0.799988 7.61625 3.31272 11.0411 4.84498 12.9478C5.35062 13.5799 6.27974 13.684 6.9163 13.1839C7.00356 13.1153 7.08312 13.0366 7.15499 12.9478C8.68726 11.0437 11.2 7.61625 11.2 5.6411C11.1949 2.80271 8.86961 0.5 5.99746 0.5ZM5.99746 7.67968C4.86045 7.67968 3.93903 6.76825 3.9364 5.64357C3.93383 4.51889 4.85782 3.60486 5.99484 3.60486C7.13185 3.60486 8.0559 4.51629 8.0559 5.64097C8.0559 6.7682 7.13448 7.67968 5.99746 7.67968Z" fill="#4EA396"/>
</svg>
