<svg width="24" height="24" viewBox="0 0 24 24" fill="none" xmlns="http://www.w3.org/2000/svg">
<path d="M6 18.5993C6.30103 15.5673 8.85917 13.1993 11.9704 13.1993C15.0816 13.1993 17.6397 15.5673 17.9407 18.5993H16.7332C16.438 16.2315 14.4181 14.3993 11.9704 14.3993C9.5226 14.3993 7.50277 16.2315 7.20751 18.5993H6ZM11.9704 11.9993C9.98215 11.9993 8.37037 10.3875 8.37037 8.39929C8.37037 6.41106 9.98215 4.79929 11.9704 4.79929C13.9586 4.79929 15.5704 6.41106 15.5704 8.39929C15.5704 10.3875 13.9586 11.9993 11.9704 11.9993ZM11.9704 10.7993C13.2959 10.7993 14.3704 9.72477 14.3704 8.39929C14.3704 7.0738 13.2959 5.99929 11.9704 5.99929C10.6449 5.99929 9.57037 7.0738 9.57037 8.39929C9.57037 9.72477 10.6449 10.7993 11.9704 10.7993Z" fill="white"/>
<path d="M23.4002 16.2H22.2002C22.2002 14.5431 20.857 13.2 19.2002 13.2C18.3673 13.2 17.6136 13.5395 17.07 14.0876C16.7852 13.8051 16.477 13.5464 16.1484 13.3144C16.914 12.505 17.9981 12 19.2002 12C21.5198 12 23.4002 13.8804 23.4002 16.2Z" fill="white"/>
<path d="M19.2023 9.60068C19.5337 9.60068 19.8023 9.33205 19.8023 9.00068C19.8023 8.66931 19.5337 8.40068 19.2023 8.40068C18.871 8.40068 18.6023 8.66931 18.6023 9.00068C18.6023 9.33205 18.871 9.60068 19.2023 9.60068ZM19.2023 10.8007C18.2082 10.8007 17.4023 9.9948 17.4023 9.00068C17.4023 8.00657 18.2082 7.20068 19.2023 7.20068C20.1965 7.20068 21.0023 8.00657 21.0023 9.00068C21.0023 9.9948 20.1965 10.8007 19.2023 10.8007Z" fill="white"/>
<path d="M0.599805 16.2H1.79981C1.79981 14.5431 3.14295 13.2 4.79981 13.2C5.63275 13.2 6.3864 13.5395 6.92998 14.0876C7.21477 13.8051 7.52302 13.5464 7.85156 13.3144C7.08597 12.505 6.00186 12 4.79981 12C2.48021 12 0.599805 13.8804 0.599805 16.2Z" fill="white"/>
<path d="M4.79766 9.60068C4.46629 9.60068 4.19766 9.33205 4.19766 9.00068C4.19766 8.66931 4.46629 8.40068 4.79766 8.40068C5.12903 8.40068 5.39766 8.66931 5.39766 9.00068C5.39766 9.33205 5.12903 9.60068 4.79766 9.60068ZM4.79766 10.8007C5.79177 10.8007 6.59766 9.9948 6.59766 9.00068C6.59766 8.00657 5.79177 7.20068 4.79766 7.20068C3.80354 7.20068 2.99766 8.00657 2.99766 9.00068C2.99766 9.9948 3.80354 10.8007 4.79766 10.8007Z" fill="white"/>
</svg>
