<svg width="18" height="24" viewBox="0 0 18 24" fill="none" xmlns="http://www.w3.org/2000/svg">
<path d="M16.8547 5.8337L16.8514 5.8286L12.3957 1.15067C12.3504 1.10307 12.296 1.06517 12.2356 1.03927C12.1753 1.01337 12.1103 1.00001 12.0446 1H4.0694C3.24975 1.00686 2.46629 1.33855 1.89088 1.92231C1.31547 2.50607 0.995101 3.29424 1.00006 4.1139V19.8861C0.995102 20.7058 1.31547 21.4939 1.89088 22.0777C2.46629 22.6615 3.24975 22.9931 4.0694 23H13.9161C14.7358 22.9931 15.5193 22.6615 16.0947 22.0777C16.6701 21.4939 16.9904 20.7058 16.9855 19.8861V6.27609C16.9951 6.24549 17.0014 6.21398 17.0044 6.18207C17.0043 6.11689 16.991 6.05241 16.9653 5.99253C16.9395 5.93264 16.9019 5.87861 16.8547 5.8337ZM12.4331 2.59667L15.386 5.6969H12.4331V2.59667ZM13.9161 22.0296H4.0694C3.50921 22.0163 2.97636 21.7848 2.58431 21.3844C2.19226 20.9841 1.972 20.4465 1.97042 19.8861V4.11388C1.972 3.55353 2.19226 3.01593 2.58431 2.61557C2.97636 2.2152 3.50921 1.98369 4.0694 1.97035H11.4628V6.18205C11.4627 6.24577 11.4752 6.30888 11.4996 6.36776C11.524 6.42664 11.5597 6.48015 11.6048 6.52521C11.6498 6.57027 11.7033 6.606 11.7622 6.63037C11.8211 6.65474 11.8842 6.66727 11.9479 6.66723H16.0151V19.8861C16.0135 20.4464 15.7933 20.984 15.4012 21.3844C15.0092 21.7848 14.4763 22.0163 13.9161 22.0296Z" fill="black" stroke="black" stroke-width="0.432565"/>
<path d="M13.2233 10.5854H4.66536C4.53668 10.5854 4.41327 10.6366 4.32228 10.7276C4.23129 10.8185 4.18018 10.942 4.18018 11.0706C4.18018 11.1993 4.23129 11.3227 4.32228 11.4137C4.41327 11.5047 4.53668 11.5558 4.66536 11.5558H13.2233C13.352 11.5558 13.4754 11.5047 13.5664 11.4137C13.6574 11.3227 13.7085 11.1993 13.7085 11.0706C13.7085 10.942 13.6574 10.8185 13.5664 10.7276C13.4754 10.6366 13.352 10.5854 13.2233 10.5854Z" fill="black" stroke="black" stroke-width="0.432565"/>
<path d="M13.2233 14.4663H4.66536C4.53668 14.4663 4.41327 14.5174 4.32228 14.6084C4.23129 14.6994 4.18018 14.8228 4.18018 14.9515C4.18018 15.0802 4.23129 15.2036 4.32228 15.2946C4.41327 15.3856 4.53668 15.4367 4.66536 15.4367H13.2233C13.352 15.4367 13.4754 15.3856 13.5664 15.2946C13.6574 15.2036 13.7085 15.0802 13.7085 14.9515C13.7085 14.8228 13.6574 14.6994 13.5664 14.6084C13.4754 14.5174 13.352 14.4663 13.2233 14.4663Z" fill="black" stroke="black" stroke-width="0.432565"/>
<path d="M13.2233 18.3467H4.66536C4.53668 18.3467 4.41327 18.3978 4.32228 18.4888C4.23129 18.5798 4.18018 18.7032 4.18018 18.8319C4.18018 18.9605 4.23129 19.0839 4.32228 19.1749C4.41327 19.2659 4.53668 19.317 4.66536 19.317H13.2233C13.352 19.317 13.4754 19.2659 13.5664 19.1749C13.6574 19.0839 13.7085 18.9605 13.7085 18.8319C13.7085 18.7032 13.6574 18.5798 13.5664 18.4888C13.4754 18.3978 13.352 18.3467 13.2233 18.3467Z" fill="black" stroke="black" stroke-width="0.432565"/>
</svg>
