<svg width="24" height="19" viewBox="0 0 24 19" fill="none" xmlns="http://www.w3.org/2000/svg">
<path d="M12.1041 14.883C11.6217 14.883 11.1502 14.74 10.7491 14.472C10.348 14.204 10.0355 13.8231 9.85088 13.3774C9.66631 12.9317 9.61804 12.4413 9.71218 11.9682C9.80632 11.4951 10.0386 11.0606 10.3798 10.7195C10.7209 10.3785 11.1555 10.1462 11.6286 10.0522C12.1017 9.95813 12.5921 10.0065 13.0378 10.1912C13.4834 10.3758 13.8642 10.6885 14.1322 11.0896C14.4001 11.4907 14.543 11.9623 14.5429 12.4447C14.542 13.0912 14.2848 13.7109 13.8276 14.168C13.3704 14.6251 12.7506 14.8822 12.1041 14.883ZM12.1041 10.7918C11.7772 10.7918 11.4576 10.8887 11.1858 11.0704C10.914 11.252 10.7021 11.5101 10.577 11.8122C10.4519 12.1142 10.4192 12.4465 10.483 12.7672C10.5467 13.0878 10.7042 13.3823 10.9353 13.6135C11.1665 13.8446 11.461 14.0021 11.7816 14.0658C12.1023 14.1296 12.4346 14.0969 12.7367 13.9718C13.0387 13.8467 13.2968 13.6348 13.4784 13.363C13.6601 13.0912 13.757 12.7716 13.757 12.4447C13.7565 12.0065 13.5822 11.5864 13.2723 11.2765C12.9624 10.9666 12.5423 10.7923 12.1041 10.7918Z" fill="white" stroke="white" stroke-width="0.4"/>
<path d="M14.0689 12.2661C13.997 12.266 13.9265 12.2463 13.865 12.2089C13.8036 12.1715 13.7535 12.118 13.7204 12.0542C13.6873 11.9903 13.6723 11.9186 13.6771 11.8469C13.6819 11.7751 13.7063 11.706 13.7477 11.6472L15.7479 8.80163L12.9023 10.8018C12.8171 10.8621 12.7114 10.886 12.6085 10.8683C12.5056 10.8506 12.4139 10.7928 12.3536 10.7075C12.2934 10.6222 12.2695 10.5165 12.2872 10.4136C12.3049 10.3107 12.3627 10.2191 12.448 10.1588L17.1365 6.86334C17.2122 6.81045 17.3041 6.7859 17.396 6.79399C17.488 6.80208 17.5742 6.84229 17.6395 6.90758C17.7047 6.97286 17.745 7.05904 17.7531 7.15101C17.7611 7.24298 17.7366 7.33486 17.6837 7.41054L14.3902 12.0991C14.3539 12.1506 14.3058 12.1927 14.2499 12.2218C14.194 12.2509 14.1319 12.2661 14.0689 12.2661Z" fill="white" stroke="white" stroke-width="0.4"/>
<path d="M12.1041 3.99635C11.9999 3.99635 11.8999 3.95494 11.8262 3.88125C11.7526 3.80755 11.7112 3.7076 11.7112 3.60338V1.39296C11.7112 1.28874 11.7526 1.18879 11.8262 1.1151C11.8999 1.0414 11.9999 1 12.1041 1C12.2083 1 12.3083 1.0414 12.382 1.1151C12.4557 1.18879 12.4971 1.28874 12.4971 1.39296V3.60338C12.4971 3.7076 12.4557 3.80755 12.382 3.88125C12.3083 3.95494 12.2083 3.99635 12.1041 3.99635Z" fill="white" stroke="white" stroke-width="0.4"/>
<path d="M7.68328 5.18119C7.6142 5.18129 7.54632 5.16318 7.48647 5.12869C7.42662 5.0942 7.37692 5.04453 7.34238 4.98471L6.23718 3.06901C6.21137 3.02431 6.19463 2.97496 6.1879 2.92379C6.18117 2.87262 6.18458 2.82062 6.19794 2.77076C6.21131 2.72091 6.23436 2.67418 6.26579 2.63323C6.29721 2.59229 6.3364 2.55793 6.3811 2.53213C6.47138 2.48002 6.57866 2.46591 6.67935 2.4929C6.78003 2.51989 6.86587 2.58577 6.91798 2.67605L8.02319 4.59175C8.05767 4.65146 8.07582 4.71918 8.07584 4.78813C8.07586 4.85707 8.05774 4.92481 8.02329 4.98454C7.98885 5.04426 7.9393 5.09388 7.87962 5.12839C7.81994 5.16291 7.75223 5.18112 7.68328 5.18119Z" fill="white" stroke="white" stroke-width="0.4"/>
<path d="M4.44674 8.41709C4.37774 8.41731 4.30993 8.39917 4.25026 8.36453L2.33456 7.25932C2.24428 7.20721 2.1784 7.12137 2.15141 7.02069C2.12441 6.92 2.13853 6.81272 2.19064 6.72244C2.24275 6.63216 2.32859 6.56627 2.42927 6.53928C2.52996 6.51229 2.63724 6.5264 2.72752 6.57852L4.64322 7.68372C4.71818 7.72696 4.77677 7.79372 4.8099 7.87366C4.84304 7.9536 4.84886 8.04224 4.82647 8.12582C4.80407 8.20941 4.75471 8.28327 4.68605 8.33593C4.61739 8.3886 4.53327 8.41713 4.44674 8.41709Z" fill="white" stroke="white" stroke-width="0.4"/>
<path d="M3.26244 12.8382H1.05202C0.947801 12.8382 0.847849 12.7968 0.774154 12.7231C0.700459 12.6494 0.659058 12.5494 0.659058 12.4452C0.659058 12.341 0.700459 12.241 0.774154 12.1673C0.847849 12.0936 0.947801 12.0522 1.05202 12.0522H3.26244C3.36666 12.0522 3.46661 12.0936 3.54031 12.1673C3.614 12.241 3.6554 12.341 3.6554 12.4452C3.6554 12.5494 3.614 12.6494 3.54031 12.7231C3.46661 12.7968 3.36666 12.8382 3.26244 12.8382Z" fill="white" stroke="white" stroke-width="0.4"/>
<path d="M21.6767 18.3648C21.6077 18.3649 21.5399 18.3468 21.4802 18.3122L19.5645 17.205C19.5198 17.1792 19.4806 17.1448 19.4492 17.1038C19.4177 17.0628 19.3947 17.016 19.3814 16.9661C19.3681 16.9162 19.3647 16.8641 19.3715 16.8129C19.3783 16.7617 19.3952 16.7123 19.4211 16.6676C20.1637 15.3837 20.5546 13.9266 20.5543 12.4433C20.5543 7.78472 16.7642 3.99459 12.1056 3.99459C7.44701 3.99459 3.65541 7.78619 3.65541 12.4448C3.65515 13.928 4.04603 15.3851 4.78861 16.6691C4.81452 16.7138 4.83137 16.7632 4.83818 16.8144C4.84499 16.8656 4.84164 16.9176 4.82832 16.9676C4.815 17.0175 4.79197 17.0643 4.76054 17.1053C4.72912 17.1463 4.68992 17.1807 4.64518 17.2065L2.72949 18.3137C2.63931 18.3657 2.53219 18.3798 2.43162 18.3529C2.33105 18.326 2.24527 18.2603 2.19309 18.1702C1.18908 16.4303 0.660689 14.4568 0.661026 12.448C0.661364 10.4392 1.19041 8.46587 2.19501 6.7263C3.19961 4.98673 4.64437 3.54222 6.38411 2.53791C8.12384 1.5336 10.0973 1.00488 12.1061 1.00488C14.1149 1.00488 16.0883 1.5336 17.8281 2.53791C19.5678 3.54222 21.0125 4.98673 22.0171 6.7263C23.0217 8.46587 23.5508 10.4392 23.5511 12.448C23.5515 14.4568 23.0231 16.4303 22.0191 18.1702C21.9842 18.2299 21.9341 18.2793 21.874 18.3135C21.8139 18.3476 21.7458 18.3653 21.6767 18.3648ZM20.2895 16.7168L21.5274 17.4315C22.3395 15.8948 22.7638 14.1829 22.7632 12.4448C22.7632 6.56751 17.9814 1.78564 12.1041 1.78564C6.22686 1.78564 1.44499 6.56751 1.44499 12.4448C1.44446 14.1829 1.86873 15.8948 2.68086 17.4315L3.91869 16.7168C3.22915 15.3978 2.86915 13.9316 2.86948 12.4433C2.86948 7.35147 7.01229 3.20866 12.1041 3.20866C17.1959 3.20866 21.3388 7.35147 21.3388 12.4433C21.3391 13.9316 20.9791 15.3978 20.2895 16.7168Z" fill="white" stroke="white" stroke-width="0.4"/>
<path d="M23.1562 12.8382H20.9458C20.8416 12.8382 20.7416 12.7968 20.6679 12.7231C20.5942 12.6494 20.5528 12.5494 20.5528 12.4452C20.5528 12.341 20.5942 12.241 20.6679 12.1673C20.7416 12.0936 20.8416 12.0522 20.9458 12.0522H23.1562C23.2604 12.0522 23.3604 12.0936 23.4341 12.1673C23.5078 12.241 23.5492 12.341 23.5492 12.4452C23.5492 12.5494 23.5078 12.6494 23.4341 12.7231C23.3604 12.7968 23.2604 12.8382 23.1562 12.8382Z" fill="white" stroke="white" stroke-width="0.4"/>
<path d="M19.7615 8.41709C19.675 8.41713 19.5908 8.3886 19.5222 8.33593C19.4535 8.28327 19.4042 8.20941 19.3818 8.12582C19.3594 8.04224 19.3652 7.9536 19.3983 7.87366C19.4315 7.79372 19.4901 7.72696 19.565 7.68372L21.4807 6.57852C21.571 6.5264 21.6783 6.51229 21.779 6.53928C21.8796 6.56627 21.9655 6.63216 22.0176 6.72244C22.0697 6.81272 22.0838 6.92 22.0568 7.02069C22.0298 7.12137 21.964 7.20721 21.8737 7.25932L19.958 8.36453C19.8983 8.39923 19.8305 8.41738 19.7615 8.41709Z" fill="white" stroke="white" stroke-width="0.4"/>
<path d="M16.5249 5.18119C16.456 5.18112 16.3883 5.16291 16.3286 5.12839C16.2689 5.09387 16.2194 5.04426 16.1849 4.98453C16.1505 4.92481 16.1324 4.85707 16.1324 4.78813C16.1324 4.71918 16.1506 4.65145 16.185 4.59175L17.2902 2.67605C17.316 2.63135 17.3504 2.59217 17.3913 2.56074C17.4323 2.52931 17.479 2.50626 17.5289 2.4929C17.5787 2.47953 17.6307 2.47612 17.6819 2.48285C17.7331 2.48958 17.7824 2.50633 17.8271 2.53213C17.8718 2.55793 17.911 2.59228 17.9424 2.63323C17.9739 2.67417 17.9969 2.72091 18.0103 2.77076C18.0236 2.82062 18.0271 2.87262 18.0203 2.92379C18.0136 2.97496 17.9969 3.02431 17.9711 3.06901L16.8658 4.98471C16.8313 5.04453 16.7816 5.09419 16.7218 5.12869C16.6619 5.16318 16.594 5.18129 16.5249 5.18119Z" fill="white" stroke="white" stroke-width="0.4"/>
</svg>
