<svg width="24" height="25" viewBox="0 0 24 25" fill="none" xmlns="http://www.w3.org/2000/svg">
<path d="M12 1C9.3478 1 6.8043 2.05357 4.92893 3.92893C3.05357 5.8043 2 8.34784 2 11C2 13.288 3.3 15.7 4.786 17.744C6.3 19.83 8.14 21.716 9.478 22.984C10.1569 23.6336 11.0603 23.9962 12 23.9962C12.9397 23.9962 13.8431 23.6336 14.522 22.984C15.86 21.716 17.7 19.83 19.214 17.744C20.698 15.7 22 13.288 22 11C22 9.6868 21.7413 8.38642 21.2388 7.17317C20.7362 5.95991 19.9997 4.85752 19.0711 3.92893C18.1425 3.00035 17.0401 2.26375 15.8268 1.7612C14.6136 1.25866 13.3132 1 12 1Z" fill="url(#paint0_linear_1176_2673)"/>
<path d="M15 11C15 11.7956 14.6839 12.5587 14.1213 13.1213C13.5587 13.6839 12.7956 14 12 14C11.2044 14 10.4413 13.6839 9.8787 13.1213C9.3161 12.5587 9 11.7956 9 11C9 10.2044 9.3161 9.4413 9.8787 8.87868C10.4413 8.31607 11.2044 8 12 8C12.7956 8 13.5587 8.31607 14.1213 8.87868C14.6839 9.4413 15 10.2044 15 11Z" fill="url(#paint1_linear_1176_2673)"/>
<defs>
<linearGradient id="paint0_linear_1176_2673" x1="7.5" y1="-2.0935e-07" x2="11.5" y2="27" gradientUnits="userSpaceOnUse">
<stop stop-color="#F14738"/>
<stop offset="1" stop-color="#F14738"/>
</linearGradient>
<linearGradient id="paint1_linear_1176_2673" x1="9.348" y1="11.266" x2="12.472" y2="14.514" gradientUnits="userSpaceOnUse">
<stop stop-color="#FDFDFD"/>
<stop offset="1" stop-color="#DAE9FF"/>
</linearGradient>
</defs>
</svg>
