<svg width="20" height="21" viewBox="0 0 20 21" fill="none" xmlns="http://www.w3.org/2000/svg">
<path d="M12.6342 1.05474C8.55619 -0.0379679 4.40821 1.64701 2.11594 4.91898L0.949833 4.60653C0.855995 4.58136 0.757378 4.57988 0.662828 4.60223C0.568279 4.62457 0.480756 4.67004 0.408113 4.73455C0.33547 4.79906 0.279979 4.8806 0.246619 4.97185C0.213259 5.0631 0.203075 5.1612 0.216979 5.25735L0.634575 8.15367C0.640648 8.28721 0.692132 8.41468 0.780509 8.51498C0.868886 8.61529 0.988859 8.68241 1.12058 8.70525C1.25229 8.72809 1.38786 8.70527 1.50485 8.64058C1.62183 8.57588 1.71323 8.47318 1.7639 8.34948C1.76874 8.3379 1.7732 8.32617 1.77728 8.3143L1.80805 8.22604C3.06105 3.6588 7.74939 0.960872 12.3305 2.18836C14.6295 2.80438 16.4548 4.28997 17.5565 6.19829C17.5942 6.26669 17.6451 6.32688 17.7063 6.37535C17.7675 6.42381 17.8378 6.45958 17.913 6.48055C17.9882 6.50153 18.0668 6.50728 18.1443 6.49749C18.2217 6.48769 18.2965 6.46254 18.3641 6.4235C18.4317 6.38446 18.4908 6.33233 18.5381 6.27015C18.5853 6.20797 18.6196 6.13699 18.639 6.06138C18.6585 5.98576 18.6626 5.90703 18.6513 5.82979C18.6399 5.75255 18.6132 5.67835 18.5728 5.61155C17.3218 3.44473 15.2395 1.75283 12.6342 1.05474Z" fill="white"/>
<path d="M19.1189 12.2999C18.9834 12.27 18.8416 12.2891 18.7189 12.3538C18.5961 12.4186 18.5002 12.5247 18.4483 12.6534C18.4435 12.6649 18.439 12.6767 18.4349 12.6885L18.4042 12.7768C17.1512 17.344 12.4628 20.042 7.88175 18.8145C5.58274 18.1985 3.75743 16.7129 2.65566 14.8046C2.61801 14.7362 2.56709 14.676 2.50588 14.6275C2.44467 14.579 2.37441 14.5433 2.29921 14.5223C2.224 14.5013 2.14537 14.4956 2.06791 14.5054C1.99046 14.5152 1.91574 14.5403 1.84812 14.5793C1.78051 14.6184 1.72136 14.6705 1.67415 14.7327C1.62694 14.7949 1.59261 14.8659 1.57317 14.9415C1.55373 15.0171 1.54957 15.0958 1.56094 15.1731C1.57231 15.2503 1.59898 15.3245 1.63939 15.3913C2.8904 17.5581 4.97266 19.25 7.57799 19.9481C11.656 21.0408 15.804 19.3558 18.0963 16.0839L19.2624 16.3963C19.3562 16.4215 19.4548 16.423 19.5494 16.4006C19.6439 16.3783 19.7314 16.3328 19.8041 16.2683C19.8767 16.2038 19.9322 16.1222 19.9656 16.031C19.9989 15.9398 20.0091 15.8417 19.9952 15.7455L19.5776 12.8492C19.5724 12.7199 19.5246 12.5959 19.4417 12.4965C19.3587 12.3972 19.2452 12.3281 19.1189 12.2999Z" fill="white"/>
<path d="M10.1081 3.46094C6.22604 3.46094 3.06641 6.62057 3.06641 10.5027C3.06641 14.3847 6.22604 17.5444 10.1081 17.5444C11.6066 17.5444 13.0665 17.0663 14.2746 16.1797C14.3384 16.1348 14.3925 16.0775 14.4339 16.0114C14.4752 15.9453 14.503 15.8716 14.5155 15.7946C14.5281 15.7176 14.5251 15.6389 14.5069 15.563C14.4887 15.4872 14.4555 15.4157 14.4093 15.3529C14.3632 15.29 14.3049 15.237 14.238 15.1969C14.1711 15.1567 14.0969 15.1304 14.0197 15.1193C13.9425 15.1082 13.8638 15.1126 13.7884 15.1323C13.7129 15.1519 13.6421 15.1865 13.5801 15.2338C12.5732 15.9727 11.357 16.3707 10.1081 16.3707C6.86031 16.3707 4.24003 13.7505 4.24003 10.5027C4.24003 7.25484 6.86031 4.63456 10.1081 4.63456C13.3559 4.63456 15.9762 7.25484 15.9762 10.5027C15.9762 11.7514 15.5781 12.9678 14.8393 13.9746C14.7906 14.0365 14.7549 14.1075 14.7342 14.1835C14.7136 14.2595 14.7085 14.3388 14.7191 14.4168C14.7298 14.4948 14.756 14.5699 14.7963 14.6375C14.8366 14.7052 14.89 14.7641 14.9535 14.8106C15.017 14.8572 15.0892 14.8905 15.1658 14.9086C15.2424 14.9267 15.3219 14.9291 15.3995 14.9159C15.4771 14.9026 15.5512 14.8738 15.6175 14.8313C15.6838 14.7888 15.7408 14.7334 15.7852 14.6684C16.6716 13.4604 17.1498 12.001 17.1498 10.5027C17.1498 6.62057 13.9902 3.46094 10.1081 3.46094Z" fill="white"/>
<path d="M10.0954 6.19685C9.93986 6.19928 9.79168 6.26333 9.68338 6.37493C9.57507 6.48653 9.51549 6.63656 9.51772 6.79206V7.0274C8.73851 7.20789 8.1485 7.90923 8.1485 8.73969V9.3265C8.1485 10.2916 8.9438 11.0869 9.90893 11.0869H10.3001C10.6354 11.0869 10.8869 11.3385 10.8869 11.6737V12.2605C10.8869 12.5958 10.6354 12.8474 10.3001 12.8474H9.90893C9.57368 12.8474 9.32212 12.5958 9.32212 12.2605C9.32322 12.1828 9.30885 12.1056 9.27985 12.0334C9.25086 11.9613 9.20781 11.8956 9.15321 11.8402C9.09861 11.7848 9.03355 11.7409 8.96181 11.7109C8.89006 11.6808 8.81307 11.6654 8.73531 11.6654C8.65754 11.6654 8.58055 11.6808 8.50881 11.7109C8.43706 11.7409 8.372 11.7848 8.3174 11.8402C8.2628 11.8956 8.21975 11.9613 8.19076 12.0334C8.16176 12.1056 8.1474 12.1828 8.1485 12.2605C8.1485 13.091 8.73851 13.7923 9.51772 13.9728V14.2082C9.51662 14.2859 9.53098 14.3631 9.55998 14.4353C9.58898 14.5075 9.63203 14.5731 9.68663 14.6285C9.74123 14.6839 9.80629 14.7279 9.87803 14.7579C9.94977 14.7879 10.0268 14.8033 10.1045 14.8033C10.1823 14.8033 10.2593 14.7879 10.331 14.7579C10.4028 14.7279 10.4678 14.6839 10.5224 14.6285C10.577 14.5731 10.6201 14.5075 10.6491 14.4353C10.6781 14.3631 10.6924 14.2859 10.6913 14.2082V13.9728C11.4705 13.7923 12.0606 13.091 12.0606 12.2605V11.6737C12.0606 10.7086 11.2653 9.91331 10.3001 9.91331H9.90893C9.57368 9.91331 9.32212 9.66174 9.32212 9.3265V8.73969C9.32212 8.40445 9.57368 8.15288 9.90893 8.15288H10.3001C10.6354 8.15288 10.8869 8.40445 10.8869 8.73969C10.8858 8.81745 10.9002 8.89465 10.9292 8.96681C10.9582 9.03897 11.0012 9.10465 11.0558 9.16002C11.1104 9.2154 11.1755 9.25937 11.2473 9.28939C11.319 9.3194 11.396 9.33486 11.4738 9.33486C11.5515 9.33486 11.6285 9.3194 11.7003 9.28939C11.772 9.25937 11.8371 9.2154 11.8917 9.16002C11.9463 9.10465 11.9893 9.03897 12.0183 8.96681C12.0473 8.89465 12.0617 8.81745 12.0606 8.73969C12.0606 7.90923 11.4705 7.20789 10.6913 7.0274V6.79206C10.6925 6.71352 10.6778 6.63555 10.6483 6.56278C10.6187 6.49001 10.5748 6.42391 10.5192 6.3684C10.4637 6.31289 10.3975 6.26911 10.3247 6.23964C10.2519 6.21017 10.1739 6.19562 10.0954 6.19685Z" fill="white"/>
</svg>
