<svg width="17" height="20" viewBox="0 0 17 20" fill="none" xmlns="http://www.w3.org/2000/svg">
<path d="M10.9003 1.2002V4.5002C10.9003 5.10771 11.3928 5.60019 12.0003 5.60019H15.3003M13.6503 2.8502C13.1608 2.41216 12.6528 1.89262 12.332 1.5552C12.1186 1.33067 11.8238 1.2002 11.514 1.2002H3.20009C1.98506 1.2002 1.00009 2.18516 1.00009 3.40018L1 16.6001C0.999992 17.8152 1.98496 18.8001 3.19999 18.8001L13.1 18.8002C14.315 18.8002 15.3 17.8152 15.3 16.6002L15.3003 4.93821C15.3003 4.65694 15.193 4.38656 14.9978 4.18407C14.6368 3.80962 14.034 3.1935 13.6503 2.8502Z" stroke="white" stroke-width="1.5" stroke-linecap="round" stroke-linejoin="round"/>
</svg>
