<svg width="21" height="21" viewBox="0 0 21 21" fill="none" xmlns="http://www.w3.org/2000/svg">
<path d="M2.89331 16.1296H5.03066C5.8985 16.1296 6.60663 15.4204 6.60663 14.5535V9.91926C6.60663 9.05133 5.89748 8.34313 5.03066 8.34313L4.33144 8.34213V8.22608C4.33144 4.82978 7.10354 2.05739 10.4995 2.05739C13.8954 2.05739 16.6675 4.82978 16.6675 8.22608V8.34213H15.9693C15.1015 8.34213 14.3933 9.05136 14.3933 9.91827V14.5525C14.3933 15.4204 15.1025 16.1286 15.9693 16.1286H16.6675V16.6573C16.6675 17.2494 16.1915 17.7256 15.5994 17.7256H13.0603C12.8382 17.0163 12.1826 16.5085 11.3991 16.5085H9.59001C8.62696 16.5085 7.84443 17.2911 7.84443 18.2542C7.84443 19.2174 8.62696 20 9.59001 20H11.3991C12.1816 20 12.8273 19.4812 13.0603 18.7829H15.5994C16.7737 18.7829 17.7258 17.8307 17.7258 16.6563V16.1276H18.1067C19.154 16.1276 20 15.2815 20 14.234V10.2347C20 9.27151 19.2492 8.44624 18.3606 8.36194C18.2544 8.34111 18.1701 8.34111 18.1067 8.34111H17.7258L17.7248 8.22605C17.7248 4.23759 14.4876 1 10.4995 1C6.51147 0.999008 3.27421 4.23658 3.27421 8.22605V8.3421H2.89336C2.82988 8.3421 2.74558 8.3421 2.71384 8.35301C1.75079 8.43733 1 9.27351 1 10.2367V14.236C0.999009 15.2825 1.84596 16.1296 2.89331 16.1296ZM11.4089 18.9436H9.59988C9.21903 18.9436 8.91257 18.6371 8.91257 18.2562C8.91257 17.8754 9.21903 17.5689 9.59988 17.5689H11.4089C11.769 17.5689 12.0546 17.8436 12.0863 18.2037C12.0863 18.2245 12.0754 18.2463 12.0754 18.2672C12.0754 18.288 12.0863 18.3098 12.0863 18.3306C12.0546 18.6689 11.769 18.9436 11.4089 18.9436ZM18.18 9.41039C18.6035 9.45304 18.9417 9.8121 18.9417 10.2357V14.235C18.9417 14.7002 18.5718 15.0712 18.1056 15.0712H15.9683C15.6826 15.0712 15.4495 14.8381 15.4495 14.5524V9.91825C15.4495 9.63258 15.6826 9.39947 15.9683 9.39947L18.18 9.41039ZM2.05721 10.2357C2.05721 9.8121 2.39541 9.44213 2.89331 9.39947H5.03066C5.3163 9.39947 5.54938 9.63257 5.54938 9.91825V14.5524C5.54938 14.8381 5.31631 15.0712 5.03066 15.0712H2.89331C2.42816 15.0712 2.05721 14.7012 2.05721 14.235V10.2357Z" fill="white" stroke="white" stroke-width="0.4"/>
</svg>
