<svg width="20" height="20" viewBox="0 0 20 20" fill="none" xmlns="http://www.w3.org/2000/svg">
<path d="M14.0462 13.343C13.622 12.295 12.8297 11.484 11.8503 11.0223C13.2976 9.40658 12.1497 6.86768 9.9975 6.86768C7.84527 6.86768 6.69745 9.40674 8.14471 11.0223C7.1653 11.4777 6.37301 12.2887 5.94881 13.343C5.8178 13.6612 5.97376 14.023 6.29193 14.154C6.61009 14.285 6.9719 14.129 7.10291 13.8109C8.15096 11.2157 11.8317 11.2157 12.8859 13.8109C13.0169 14.129 13.3788 14.285 13.6969 14.154C14.0151 14.023 14.171 13.6612 14.04 13.343H14.0462ZM8.74987 9.36283C8.74987 8.6766 9.31132 8.11515 9.99754 8.11515C10.6838 8.11515 11.2452 8.6766 11.2452 9.36283C11.2452 10.049 10.6838 10.6105 9.99754 10.6105C9.31132 10.6105 8.74987 10.049 8.74987 9.36283Z" fill="white"/>
<path d="M10.6365 19.9691H9.34511C8.32202 19.9691 7.49233 19.1394 7.49233 18.1163C7.49233 17.8668 7.33637 17.6484 7.09307 17.5548C6.94959 17.4987 6.81235 17.4426 6.67509 17.3802C6.43803 17.2741 6.17602 17.324 5.99512 17.4987C5.27769 18.2161 4.09865 18.2224 3.38119 17.4987L2.47039 16.5879C1.74673 15.8643 1.74673 14.6914 2.47039 13.974C2.64506 13.7993 2.69497 13.531 2.58891 13.294C2.52653 13.163 2.47039 13.0195 2.41424 12.8823C2.32066 12.639 2.10232 12.483 1.85279 12.483C0.829694 12.483 0 11.6533 0 10.6302V9.33887C0 8.31578 0.829694 7.48609 1.85279 7.48609C2.10232 7.48609 2.32067 7.33013 2.41424 7.08683C2.47039 6.94335 2.52653 6.80611 2.58891 6.66885C2.69497 6.43179 2.64506 6.16978 2.47039 5.98888C1.74673 5.26523 1.74673 4.09241 2.47039 3.37495L3.38119 2.46415C4.10484 1.7405 5.27765 1.7405 5.99512 2.46415C6.16979 2.63882 6.43805 2.68873 6.67509 2.58268C6.81233 2.52029 6.94958 2.46415 7.08682 2.41424C7.33013 2.32066 7.48608 2.10232 7.48608 1.85279C7.48608 0.829694 8.31577 0 9.33886 0H10.6302C11.6533 0 12.483 0.829694 12.483 1.85279C12.483 2.10232 12.639 2.32067 12.8823 2.41424C13.0257 2.47039 13.163 2.52653 13.3002 2.58268C13.5373 2.68873 13.8055 2.64506 13.9802 2.46415C14.6976 1.74672 15.8767 1.7405 16.5941 2.46415L17.5049 3.37495C18.2286 4.0986 18.2286 5.27141 17.5049 5.98888C17.3303 6.16355 17.2804 6.43181 17.3864 6.66885C17.4488 6.79986 17.5049 6.94334 17.5611 7.08058C17.6547 7.32389 17.873 7.47984 18.1225 7.47984C19.1456 7.47984 19.9753 8.30953 19.9753 9.33263V10.624C19.9753 11.6471 19.1456 12.4768 18.1225 12.4768C17.873 12.4768 17.6547 12.6327 17.5611 12.876C17.5049 13.0195 17.4488 13.1567 17.3864 13.294C17.2804 13.5311 17.3303 13.7931 17.5049 13.974C18.2286 14.6976 18.2286 15.8704 17.5049 16.5879L16.5941 17.4987C16.3508 17.742 15.9578 17.742 15.7145 17.4987C15.4713 17.2554 15.4712 16.8624 15.7145 16.6191L16.6253 15.7083C16.8624 15.4712 16.8624 15.0907 16.6253 14.8537C16.0826 14.3109 15.9329 13.4937 16.251 12.7825C16.3009 12.664 16.3509 12.5517 16.3945 12.4332C16.6752 11.7033 17.349 11.2354 18.1225 11.2354C18.4532 11.2354 18.7277 10.9671 18.7277 10.6303V9.33893C18.7277 9.00831 18.4594 8.73382 18.1225 8.73382C17.349 8.73382 16.6752 8.26593 16.3945 7.53605C16.3509 7.41752 16.3009 7.30524 16.251 7.18671C15.9329 6.46928 16.0764 5.65831 16.6253 5.11557C16.8624 4.87851 16.8624 4.49796 16.6253 4.26092L15.7145 3.35012C15.4775 3.11306 15.0969 3.11306 14.8599 3.35012C14.3171 3.89286 13.5062 4.04258 12.7888 3.72442C12.6765 3.67451 12.5579 3.6246 12.4394 3.58094C11.7095 3.30022 11.2416 2.62647 11.2416 1.85292C11.2416 1.52229 10.9734 1.2478 10.6365 1.2478H9.34517C9.01455 1.2478 8.74006 1.51606 8.74006 1.85292C8.74006 2.62647 8.27217 3.30022 7.54229 3.58094C7.42376 3.6246 7.30523 3.67451 7.19294 3.72442C6.48177 4.04258 5.67078 3.89285 5.1218 3.35012C4.88475 3.11306 4.5042 3.11306 4.26716 3.35012L3.35635 4.26092C3.1193 4.49798 3.1193 4.87853 3.35635 5.11557C3.8991 5.65831 4.04882 6.47553 3.73066 7.18671C3.68075 7.30523 3.63084 7.41751 3.58717 7.53605C3.30646 8.26593 2.63271 8.73382 1.85915 8.73382C1.52853 8.73382 1.25404 9.00208 1.25404 9.33893V10.6303C1.25404 10.9609 1.5223 11.2354 1.85915 11.2354C2.63271 11.2354 3.30646 11.7033 3.58717 12.4332C3.63084 12.5517 3.68075 12.664 3.73066 12.7825C4.04882 13.4999 3.90533 14.3109 3.35635 14.8537C3.1193 15.0907 3.1193 15.4713 3.35635 15.7083L4.26716 16.6191C4.50422 16.8562 4.88477 16.8562 5.1218 16.6191C5.67078 16.0764 6.48177 15.9266 7.19294 16.2448C7.31147 16.2947 7.42375 16.3446 7.54229 16.3883C8.27217 16.669 8.74006 17.3427 8.74006 18.1163C8.74006 18.4469 9.00832 18.7214 9.34517 18.7214H10.6365C10.9671 18.7214 11.2416 18.4532 11.2416 18.1163C11.2416 17.3427 11.7095 16.669 12.4394 16.3883C12.5579 16.3446 12.6702 16.2947 12.7888 16.2448C13.1007 16.1013 13.4687 16.2448 13.6122 16.5567C13.7557 16.8686 13.6122 17.2429 13.3003 17.3802C13.1631 17.4426 13.0258 17.4987 12.8823 17.5549C12.639 17.6484 12.4831 17.8668 12.4831 18.1163C12.4831 19.1394 11.6534 19.9691 10.6303 19.9691L10.6365 19.9691Z" fill="white"/>
<path d="M9.99735 15.6021C6.90312 15.6021 4.38281 13.0818 4.38281 9.98758C4.38281 6.89335 6.90312 4.37305 9.99735 4.37305C13.0916 4.37305 15.6119 6.89335 15.6119 9.98758C15.6119 13.0818 13.0916 15.6021 9.99735 15.6021ZM9.99735 5.62072C7.58944 5.62072 5.63049 7.57957 5.63049 9.98758C5.63049 12.3956 7.58934 14.3544 9.99735 14.3544C12.4054 14.3544 14.3642 12.3956 14.3642 9.98758C14.3642 7.57957 12.4054 5.62072 9.99735 5.62072Z" fill="white"/>
</svg>
