<svg width="20" height="20" viewBox="0 0 20 20" fill="none" xmlns="http://www.w3.org/2000/svg">
<path d="M12.0846 7.49984C12.0846 8.65042 11.1519 9.58317 10.0013 9.58317C8.85072 9.58317 7.91797 8.65042 7.91797 7.49984C7.91797 6.34925 8.85072 5.4165 10.0013 5.4165C11.1519 5.4165 12.0846 6.34925 12.0846 7.49984Z" stroke="white" stroke-width="1.5"/>
<path d="M15.1839 14.1665C16.3459 15.8236 16.9019 16.7061 16.5708 17.4164C16.5375 17.4877 16.4986 17.5564 16.4544 17.6221C15.9757 18.3332 14.7383 18.3332 12.2635 18.3332H7.73389C5.25912 18.3332 4.02174 18.3332 3.54295 17.6221C3.49874 17.5564 3.45985 17.4877 3.42665 17.4164C3.09552 16.7061 3.65141 15.8236 4.81351 14.1665" stroke="white" stroke-width="1.5" stroke-linecap="round" stroke-linejoin="round"/>
<path d="M11.0491 14.5778C10.7681 14.8485 10.3924 14.9998 10.0015 14.9998C9.61047 14.9998 9.2348 14.8485 8.95372 14.5778C6.37989 12.0838 2.93063 9.29775 4.61273 5.25295C5.52222 3.06594 7.70542 1.6665 10.0015 1.6665C12.2975 1.6665 14.4806 3.06595 15.3901 5.25295C17.0701 9.29267 13.6293 12.0924 11.0491 14.5778Z" stroke="white" stroke-width="1.5"/>
</svg>
