<svg width="22" height="18" viewBox="0 0 22 18" fill="none" xmlns="http://www.w3.org/2000/svg">
<path d="M18.2004 10.6857C19.4677 11.6326 20.6004 14.0167 20.6004 15.4856C20.6004 15.9433 20.2665 16.3143 19.8546 16.3143H19.4004M14.6004 6.80447C15.4202 6.33022 15.9718 5.4438 15.9718 4.42856C15.9718 3.41331 15.4202 2.5269 14.6004 2.05264M2.14616 16.3143H15.2832C15.6951 16.3143 16.029 15.9433 16.029 15.4856C16.029 12.609 13.6257 10.2771 8.71468 10.2771C3.80366 10.2771 1.40039 12.609 1.40039 15.4856C1.40039 15.9433 1.73428 16.3143 2.14616 16.3143ZM11.4575 4.42856C11.4575 5.94339 10.2295 7.17141 8.71468 7.17141C7.19984 7.17141 5.97182 5.94339 5.97182 4.42856C5.97182 2.91372 7.19984 1.6857 8.71468 1.6857C10.2295 1.6857 11.4575 2.91372 11.4575 4.42856Z" stroke="white" stroke-width="1.6" stroke-linecap="round"/>
</svg>
