<svg width="20" height="20" viewBox="0 0 20 20" fill="none" xmlns="http://www.w3.org/2000/svg">
<g clip-path="url(#clip0_445_6864)">
<path d="M12.5 7.5C12.5 6.11929 11.3807 5 10 5C8.61925 5 7.5 6.11929 7.5 7.5C7.5 8.88075 8.61925 10 10 10C11.3807 10 12.5 8.88075 12.5 7.5Z" stroke="white" stroke-width="1.5" stroke-linecap="round" stroke-linejoin="round"/>
<path d="M18.3346 9.99984C18.3346 5.39746 14.6036 1.6665 10.0013 1.6665C5.39893 1.6665 1.66797 5.39746 1.66797 9.99984C1.66797 14.6022 5.39893 18.3332 10.0013 18.3332C14.6036 18.3332 18.3346 14.6022 18.3346 9.99984Z" stroke="white" stroke-width="1.5" stroke-linecap="round" stroke-linejoin="round"/>
<path d="M14.1654 14.1667C14.1654 11.8655 12.2999 10 9.9987 10C7.69751 10 5.83203 11.8655 5.83203 14.1667" stroke="white" stroke-width="1.5" stroke-linecap="round" stroke-linejoin="round"/>
</g>
<defs>
<clipPath id="clip0_445_6864">
<rect width="20" height="20" fill="white"/>
</clipPath>
</defs>
</svg>
