<svg width="21" height="20" viewBox="0 0 21 20" fill="none" xmlns="http://www.w3.org/2000/svg">
<path d="M18.1665 4.98307C15.3915 4.70807 12.5998 4.56641 9.8165 4.56641C8.1665 4.56641 6.5165 4.64974 4.8665 4.81641L3.1665 4.98307" stroke="#292D32" stroke-width="1.25" stroke-linecap="round" stroke-linejoin="round"/>
<path d="M7.74988 4.1415L7.93321 3.04984C8.06654 2.25817 8.16654 1.6665 9.57488 1.6665H11.7582C13.1665 1.6665 13.2749 2.2915 13.3999 3.05817L13.5832 4.1415" stroke="#292D32" stroke-width="1.25" stroke-linecap="round" stroke-linejoin="round"/>
<path d="M16.3749 7.6167L15.8333 16.0084C15.7416 17.3167 15.6666 18.3334 13.3416 18.3334H7.99159C5.66659 18.3334 5.59159 17.3167 5.49992 16.0084L4.95825 7.6167" stroke="#292D32" stroke-width="1.25" stroke-linecap="round" stroke-linejoin="round"/>
<path d="M9.27478 13.75H12.0498" stroke="#292D32" stroke-width="1.25" stroke-linecap="round" stroke-linejoin="round"/>
<path d="M8.58313 10.4165H12.7498" stroke="#292D32" stroke-width="1.25" stroke-linecap="round" stroke-linejoin="round"/>
</svg>
