<svg width="24" height="24" viewBox="0 0 24 24" fill="none" xmlns="http://www.w3.org/2000/svg">
<path d="M19.0016 1C17.9403 1.00094 16.9241 1.4228 16.1742 2.17279C15.4242 2.92277 15.0023 3.93901 15.0014 4.99921C15.0014 7.07666 18.2713 10.4694 18.6445 10.8491L19.0017 11.2128L19.3589 10.8491C19.7311 10.4694 23.0011 7.07661 23.0011 4.99921C23.0001 3.93891 22.5783 2.9227 21.8283 2.17279C21.0783 1.42287 20.0621 1.00094 19.0018 1H19.0016ZM19.0016 9.77303C17.9206 8.60212 16.0016 6.26118 16.0016 4.99928C16.0016 3.34276 17.3441 1.99934 19.0016 1.99934C20.6581 1.99934 22.0015 3.34276 22.0015 4.99928C22.0015 6.2602 20.0815 8.59922 19.0016 9.77303Z" fill="white" stroke="white" stroke-width="0.4"/>
<path d="M19.0015 3.49951C18.395 3.49951 17.8475 3.86512 17.615 4.42575C17.3834 4.98636 17.5119 5.63134 17.9403 6.06072C18.3697 6.48916 19.0147 6.61758 19.5753 6.38603C20.1359 6.15354 20.5015 5.60605 20.5015 4.99951C20.5015 4.17171 19.8293 3.49951 19.0015 3.49951ZM19.0015 5.50009C18.799 5.50009 18.6162 5.37822 18.5393 5.19071C18.4615 5.00416 18.5046 4.78946 18.6481 4.64604C18.7906 4.50355 19.0053 4.46042 19.1927 4.53823C19.3793 4.61511 19.5012 4.79791 19.5012 4.99948C19.5012 5.1326 19.4487 5.25916 19.3549 5.35292C19.2612 5.44667 19.1337 5.50009 19.0015 5.50009Z" fill="white"/>
<path d="M19.0015 5.49915V5.50009M19.0015 5.50009C18.799 5.50009 18.6162 5.37822 18.5393 5.19071C18.4615 5.00416 18.5046 4.78946 18.6481 4.64604C18.7906 4.50355 19.0053 4.46042 19.1927 4.53823C19.3793 4.61511 19.5012 4.79791 19.5012 4.99948C19.5012 5.1326 19.4487 5.25916 19.3549 5.35292C19.2612 5.44667 19.1337 5.50009 19.0015 5.50009ZM19.0015 3.49951C18.395 3.49951 17.8475 3.86512 17.615 4.42575C17.3834 4.98636 17.5119 5.63134 17.9403 6.06072C18.3697 6.48916 19.0147 6.61758 19.5753 6.38603C20.1359 6.15354 20.5015 5.60605 20.5015 4.99951C20.5015 4.17171 19.8293 3.49951 19.0015 3.49951Z" stroke="white" stroke-width="0.4"/>
<path d="M5.00118 12.499C3.94088 12.5009 2.92467 12.9228 2.17475 13.6718C1.42477 14.4218 1.0029 15.439 1.00197 16.4992C1.00197 18.5766 4.27191 21.9694 4.6451 22.3491L5.00228 22.7128L5.35947 22.3491C5.73165 21.9694 9.00164 18.5766 9.00164 16.4992C9.0007 15.4389 8.57884 14.4217 7.82885 13.6718C7.07887 12.9228 6.06263 12.5009 5.00147 12.499H5.00118ZM5.00118 21.2721C3.9212 20.1021 2.00124 17.7612 2.00124 16.4993C2.00124 14.8427 3.34466 13.4993 5.00118 13.4993C6.65864 13.4993 8.00112 14.8427 8.00112 16.4993C8.00112 17.7602 6.0821 20.1021 5.00118 21.273V21.2721Z" fill="white" stroke="white" stroke-width="0.4"/>
<path d="M5.00117 14.9995C4.39463 14.9995 3.84806 15.3651 3.61558 15.9257C3.3831 16.4864 3.51152 17.1313 3.9409 17.5598C4.37027 17.9892 5.01526 18.1176 5.57586 17.8851C6.13647 17.6535 6.50117 17.106 6.50117 16.4995C6.50117 15.6708 5.8299 14.9995 5.00117 14.9995ZM5.00117 16.9992C4.79961 16.9992 4.61679 16.8773 4.53992 16.6907C4.46211 16.5042 4.50524 16.2885 4.64773 16.146C4.79117 16.0026 5.00586 15.9604 5.1924 16.0373C5.3799 16.1151 5.50178 16.297 5.50178 16.4995C5.50178 16.6317 5.44834 16.7592 5.3546 16.8529C5.26085 16.9467 5.1343 16.9992 5.00117 16.9992Z" fill="white" stroke="white" stroke-width="0.4"/>
<path d="M6.00145 21.9995H6.50112V22.9998H6.00145V21.9995Z" fill="white" stroke="white" stroke-width="0.4"/>
<path d="M7.46591 21.9995H8.43057V22.9998H7.46591V21.9995Z" fill="white" stroke="white" stroke-width="0.4"/>
<path d="M12.4475 14.4312C12.4044 14.1659 12.4044 13.8959 12.4475 13.6306L11.4603 13.4731C11.4003 13.8444 11.4012 14.2231 11.4641 14.5944L12.4475 14.4312Z" fill="white" stroke="white" stroke-width="0.4"/>
<path d="M14.5719 11.5212L14.4435 10.5293V10.5302C14.0704 10.5771 13.7066 10.6849 13.3682 10.8508L13.8079 11.7508H13.8069C14.0478 11.6327 14.3066 11.5558 14.5719 11.5212Z" fill="white" stroke="white" stroke-width="0.4"/>
<path d="M13.1619 12.2123L12.4541 11.5063C12.1898 11.7717 11.9695 12.0773 11.8016 12.4129L12.6941 12.8629C12.8141 12.6219 12.9726 12.4026 13.1619 12.2123Z" fill="white" stroke="white" stroke-width="0.4"/>
<path d="M13.9261 17.8093L14.6564 17.1268C14.5767 17.0414 14.4923 16.9589 14.4005 16.8764L13.9092 16.4424L13.2474 17.1924L13.7377 17.6255C13.8052 17.6855 13.867 17.7464 13.9261 17.8093Z" fill="white" stroke="white" stroke-width="0.4"/>
<path d="M14.2261 20.7886L15.0876 21.2995C15.2789 20.977 15.4186 20.6273 15.5011 20.2617L14.527 20.0386C14.4661 20.303 14.3648 20.5561 14.2261 20.7886Z" fill="white" stroke="white" stroke-width="0.4"/>
<path d="M14.3722 18.471C14.4838 18.7138 14.5522 18.9735 14.5775 19.2388L15.5731 19.1451C15.5375 18.7682 15.4391 18.4007 15.2825 18.0566L14.3722 18.471Z" fill="white" stroke="white" stroke-width="0.4"/>
<path d="M15.47 10.4995H16.4347V11.4998H15.47V10.4995Z" fill="white" stroke="white" stroke-width="0.4"/>
<path d="M9.39525 21.9995H10.3599V22.9998H9.39525V21.9995Z" fill="white" stroke="white" stroke-width="0.4"/>
<path d="M12.082 21.9997H11.3245V23H12.0829C12.1626 23 12.2432 22.9972 12.321 22.9925L12.2554 21.9922C12.201 21.9997 12.141 21.9997 12.082 21.9997Z" fill="white" stroke="white" stroke-width="0.4"/>
<path d="M12.7072 15.1802L11.8287 15.6583C12.0087 15.9874 12.2403 16.2855 12.514 16.5414L13.2012 15.813C13.0034 15.6302 12.8365 15.4164 12.7072 15.1802Z" fill="white" stroke="white" stroke-width="0.4"/>
<path d="M13.0381 21.8196L13.4121 22.7477C13.7618 22.6061 14.0862 22.4074 14.3712 22.159L13.7149 21.4043C13.5143 21.5796 13.2855 21.7202 13.0381 21.8196Z" fill="white" stroke="white" stroke-width="0.4"/>
<path d="M17.418 10.4995H17.9177V11.4998H17.418V10.4995Z" fill="white" stroke="white" stroke-width="0.4"/>
</svg>
